<svg viewBox="221.20000000000005 132.9677419354839 1963.1499999999999 1274.2741935483875" fill="none" xmlns="http://www.w3.org/2000/svg" xmlns:xlink="http://www.w3.org/1999/xlink" overflow="visible" width="1963.1499999999999px" height="1274.2741935483875px"><g id="Master/Scene/In the Park"><g id="Outdoors"><g id="Background/Sky" transform="translate(1531.96 39.0234) scale(0.9472916623379322 0.9486956464253384)"><g id="Background/Sky/Small Cloud 1"><path id="Dust Small" fill-rule="evenodd" clip-rule="evenodd" d="M16.0889 397H470.938C470.938 397 443.594 329.815 416.866 316.796C362.823 290.469 377.628 361.658 377.628 361.658C377.628 361.658 321.941 243.549 231.765 258.27C169.933 268.363 203.792 337.568 203.792 337.568C203.792 337.568 92.6305 240.774 32.6868 266.872C-27.2569 292.97 16.0889 397 16.0889 397" fill="#E3D4C5"/></g></g><g id="BUILDING"><path id="Fill 5" fill-rule="evenodd" clip-rule="evenodd" d="M1778.12 878.345H1553.86V534.746L1659.06 368.384L1778.12 534.746V878.345Z" fill="#E3D4C5"/><path id="Fill 7" fill-rule="evenodd" clip-rule="evenodd" d="M1658.51 370.443L1553.4 536.156H1444.22V368.384L1658.51 370.443Z" fill="#CDB1AA"/><path id="Fill 9" fill-rule="evenodd" clip-rule="evenodd" d="M1438.13 880.006H1553.86V536.156H1438.13V880.006Z" fill="#FFF5EE"/><path id="Fill 11" fill-rule="evenodd" clip-rule="evenodd" d="M1115.86 880.006H1270.35V324.641H1115.86V880.006Z" fill="#FFF5EE"/><path id="Fill 12" fill-rule="evenodd" clip-rule="evenodd" d="M1499.59 878.345H1269.24V324.302L1385.89 216.115L1499.59 324.302V878.345Z" fill="#E3D4C5"/><path id="Fill 13" fill-rule="evenodd" clip-rule="evenodd" d="M1386.08 217.223H1240.9L1115.86 324.087H1269.35L1386.08 217.223Z" fill="#CDB1AA"/><path id="Fill 19" fill-rule="evenodd" clip-rule="evenodd" d="M1783.41 547.23L1655.19 372.815L1659.86 369.491L1788.08 543.906L1783.41 547.23Z" fill="#CDB1AA"/><path id="Fill 20" fill-rule="evenodd" clip-rule="evenodd" d="M1115.86 727.183H956.383L1008.65 610.352H1115.86V727.183Z" fill="#CDB1AA"/><path id="Fill 21" fill-rule="evenodd" clip-rule="evenodd" d="M972.996 878.345H1115.86V726.076H972.996V878.345Z" fill="#E3D4C5"/><path id="Stroke 31" fill-rule="evenodd" clip-rule="evenodd" d="M871.55 883.328C869.167 883.328 867.234 881.345 867.234 878.898C867.234 876.452 869.167 874.469 871.55 874.469H1970.37C1972.76 874.469 1974.69 876.452 1974.69 878.898C1974.69 881.345 1972.76 883.328 1970.37 883.328H871.55Z" fill="#FFF5EE"/><path id="Fill 32" fill-rule="evenodd" clip-rule="evenodd" d="M1420.96 329.624H1468.58L1420.96 283.113V329.624Z" fill="#F4F0F0"/><path id="Fill 33" fill-rule="evenodd" clip-rule="evenodd" d="M1353.96 329.624H1414.87V278.891L1383.51 249.337L1353.96 278.241V329.624Z" fill="#F4F0F0"/><path id="Fill 34" fill-rule="evenodd" clip-rule="evenodd" d="M1349.53 283.113L1303.02 329.624H1349.53V283.113Z" fill="#F4F0F0"/><path id="Fill 35" fill-rule="evenodd" clip-rule="evenodd" d="M1292.5 422.093H1341.22V373.367H1292.5V422.093Z" fill="#F4F0F0"/><path id="Fill 36" fill-rule="evenodd" clip-rule="evenodd" d="M1360.61 422.093H1409.33V373.367H1360.61V422.093Z" fill="#F4F0F0"/><path id="Fill 37" fill-rule="evenodd" clip-rule="evenodd" d="M1429.82 422.093H1478.55V373.367H1429.82V422.093Z" fill="#F4F0F0"/><path id="Fill 38" fill-rule="evenodd" clip-rule="evenodd" d="M1292.5 491.306H1341.22V442.58H1292.5V491.306Z" fill="#F4F0F0"/><path id="Fill 39" fill-rule="evenodd" clip-rule="evenodd" d="M1360.61 491.306H1409.33V442.58H1360.61V491.306Z" fill="#F4F0F0"/><path id="Fill 40" fill-rule="evenodd" clip-rule="evenodd" d="M1429.82 491.306H1478.55V442.58H1429.82V491.306Z" fill="#F4F0F0"/><path id="Fill 41" fill-rule="evenodd" clip-rule="evenodd" d="M1292.5 565.502H1341.22V516.776H1292.5V565.502Z" fill="#F4F0F0"/><path id="Fill 42" fill-rule="evenodd" clip-rule="evenodd" d="M1360.61 565.502H1409.33V516.776H1360.61V565.502Z" fill="#F4F0F0"/><path id="Fill 43" fill-rule="evenodd" clip-rule="evenodd" d="M1429.82 565.502H1478.55V516.776H1429.82V565.502Z" fill="#F4F0F0"/><path id="Fill 44" fill-rule="evenodd" clip-rule="evenodd" d="M1292.5 636.376H1341.22V587.65H1292.5V636.376Z" fill="#F4F0F0"/><path id="Fill 45" fill-rule="evenodd" clip-rule="evenodd" d="M1360.61 636.376H1409.33V587.65H1360.61V636.376Z" fill="#F4F0F0"/><path id="Fill 46" fill-rule="evenodd" clip-rule="evenodd" d="M1429.82 636.376H1478.55V587.65H1429.82V636.376Z" fill="#F4F0F0"/><path id="Fill 47" fill-rule="evenodd" clip-rule="evenodd" d="M1292.5 700.606H1341.22V651.88H1292.5V700.606Z" fill="#F4F0F0"/><path id="Fill 48" fill-rule="evenodd" clip-rule="evenodd" d="M1360.61 700.606H1409.33V651.88H1360.61V700.606Z" fill="#F4F0F0"/><path id="Fill 49" fill-rule="evenodd" clip-rule="evenodd" d="M1429.82 700.606H1478.55V651.88H1429.82V700.606Z" fill="#F4F0F0"/><path id="Fill 50" fill-rule="evenodd" clip-rule="evenodd" d="M1292.5 771.48H1341.22V722.754H1292.5V771.48Z" fill="#F4F0F0"/><path id="Fill 51" fill-rule="evenodd" clip-rule="evenodd" d="M992.375 795.843H1041.1V747.117H992.375V795.843Z" fill="#F4F0F0"/><path id="Fill 52" fill-rule="evenodd" clip-rule="evenodd" d="M1065.47 795.843H1114.2V747.117H1065.47V795.843Z" fill="#F4F0F0"/><path id="Fill 53" fill-rule="evenodd" clip-rule="evenodd" d="M992.375 863.949H1041.1V815.223H992.375V863.949Z" fill="#F4F0F0"/><path id="Fill 54" fill-rule="evenodd" clip-rule="evenodd" d="M1065.47 863.949H1114.2V815.223H1065.47V863.949Z" fill="#F4F0F0"/><path id="Fill 55" fill-rule="evenodd" clip-rule="evenodd" d="M1360.61 771.48H1409.33V722.754H1360.61V771.48Z" fill="#F4F0F0"/><path id="Fill 56" fill-rule="evenodd" clip-rule="evenodd" d="M1429.82 771.48H1478.55V722.754H1429.82V771.48Z" fill="#F4F0F0"/><path id="Fill 57" fill-rule="evenodd" clip-rule="evenodd" d="M1292.5 845.676H1341.22V796.95H1292.5V845.676Z" fill="#F4F0F0"/><path id="Fill 58" fill-rule="evenodd" clip-rule="evenodd" d="M1360.61 845.676H1409.33V796.95H1360.61V845.676Z" fill="#F4F0F0"/><path id="Fill 59" fill-rule="evenodd" clip-rule="evenodd" d="M1429.82 845.676H1478.55V796.95H1429.82V845.676Z" fill="#F4F0F0"/><path id="Fill 60" fill-rule="evenodd" clip-rule="evenodd" d="M1582.1 644.682H1626.95V599.832H1582.1V644.682Z" fill="#F4F0F0"/><path id="Fill 61" fill-rule="evenodd" clip-rule="evenodd" d="M1645.22 644.682H1690.07V599.832H1645.22V644.682Z" fill="#F4F0F0"/><path id="Fill 62" fill-rule="evenodd" clip-rule="evenodd" d="M1710.01 644.682H1754.86V599.832H1710.01V644.682Z" fill="#F4F0F0"/><path id="Fill 63" fill-rule="evenodd" clip-rule="evenodd" d="M1582.1 585.989H1626.95V541.139H1582.1V585.989Z" fill="#F4F0F0"/><path id="Fill 64" fill-rule="evenodd" clip-rule="evenodd" d="M1645.22 585.989H1690.07V541.139H1645.22V585.989Z" fill="#F4F0F0"/><path id="Fill 65" fill-rule="evenodd" clip-rule="evenodd" d="M1640.79 515.669H1696.72V459.745H1640.79V515.669Z" fill="#F4F0F0"/><path id="Fill 66" fill-rule="evenodd" clip-rule="evenodd" d="M1710.01 585.989H1754.86V541.139H1710.01V585.989Z" fill="#F4F0F0"/><path id="Fill 67" fill-rule="evenodd" clip-rule="evenodd" d="M1582.1 704.482H1626.95V659.632H1582.1V704.482Z" fill="#F4F0F0"/><path id="Fill 68" fill-rule="evenodd" clip-rule="evenodd" d="M1645.22 704.482H1690.07V659.632H1645.22V704.482Z" fill="#F4F0F0"/><path id="Fill 69" fill-rule="evenodd" clip-rule="evenodd" d="M1710.01 704.482H1754.86V659.632H1710.01V704.482Z" fill="#F4F0F0"/><path id="Fill 70" fill-rule="evenodd" clip-rule="evenodd" d="M1582.1 769.819H1626.95V724.969H1582.1V769.819Z" fill="#F4F0F0"/><path id="Fill 71" fill-rule="evenodd" clip-rule="evenodd" d="M1645.22 769.819H1690.07V724.969H1645.22V769.819Z" fill="#F4F0F0"/><path id="Fill 72" fill-rule="evenodd" clip-rule="evenodd" d="M1710.01 769.819H1754.86V724.969H1710.01V769.819Z" fill="#F4F0F0"/><path id="Fill 73" fill-rule="evenodd" clip-rule="evenodd" d="M1582.1 838.478H1626.95V793.628H1582.1V838.478Z" fill="#F4F0F0"/><path id="Fill 74" fill-rule="evenodd" clip-rule="evenodd" d="M1645.22 838.478H1690.07V793.628H1645.22V838.478Z" fill="#F4F0F0"/><path id="Fill 75" fill-rule="evenodd" clip-rule="evenodd" d="M1710.01 838.478H1754.86V793.628H1710.01V838.478Z" fill="#F4F0F0"/></g><g id="Background/Sky" transform="translate(428.242 0.362305) scale(0.8942221134266954 0.6816786758845639)"><g id="Background/Sky/Cloud 4"><path id="Fill 29" fill-rule="evenodd" clip-rule="evenodd" d="M16.8076 397H422.271C436.989 397 451.179 390.801 460.649 379.549C472.924 364.961 478.452 340.923 441.983 306.277C429.799 294.701 413.85 287.651 397.044 287.08C376.92 286.396 354.553 294.947 355.312 336.684C355.312 336.684 284.802 204.316 174.679 207.042C153.736 207.559 136.146 223.562 134.279 244.406C132.466 264.643 138.95 295.35 167.31 340.796C167.31 340.796 119.312 320.726 76.6736 326.844C66.0097 328.373 56.3629 334.35 50.7104 343.512C47.5862 348.575 45.9493 354.162 49.2933 358.616C49.2933 358.616 24.775 358.968 9.39896 367.154C-5.19706 374.923 0.269993 397 16.8076 397" fill="#E3D4C5"/></g></g><g id="Background/Ground" transform="translate(320.988 269.742) scale(0.5534764371177022 0.5539866879111842)"><g id="Background/Ground/Tall Tree"><g id="Tall Tree"><path id="Fill 24" fill-rule="evenodd" clip-rule="evenodd" d="M302.208 16.5939C447.391 -19.6805 601.147 4.32121 729.733 80.716C762.435 100.146 801.169 124.056 846.762 153.441C1056.57 288.659 891.95 942.221 517.524 868.172C516.056 867.882 514.594 867.589 513.137 867.294V751.237L778.842 549.457C783.408 545.989 784.291 539.488 780.814 534.934C777.338 530.381 770.818 529.501 766.253 532.968L513.137 725.188V596.384L634.977 321.465C635.559 320.561 636 319.569 636.28 318.524L709.835 152.554C712.155 147.32 709.781 141.201 704.532 138.887C699.283 136.574 693.148 138.941 690.828 144.176L628.618 284.547L596.76 165.402C595.281 159.872 589.587 156.585 584.043 158.059C578.498 159.534 575.202 165.212 576.68 170.742L615.204 314.815L501.269 571.898L424.329 446.235L443.899 292.534C444.622 286.857 440.593 281.67 434.901 280.949C429.208 280.228 424.007 284.246 423.284 289.923L406.988 417.912L341.198 310.459C338.208 305.575 331.813 304.033 326.916 307.016C322.018 309.998 320.472 316.376 323.462 321.26L492.356 597.11V862.835C141.917 783.327 116.757 552.097 94.6814 253.245C84.0901 109.876 188.394 45.0304 302.208 16.5939Z" fill="#FFF5EE"/><path id="Combined Shape" fill-rule="evenodd" clip-rule="evenodd" d="M500.489 576.186L615.5 317.176L577.29 173.995C575.819 168.482 579.099 162.821 584.616 161.351C590.132 159.881 595.797 163.159 597.268 168.671L628.866 287.075L690.985 147.182C693.311 141.942 699.464 139.572 704.728 141.888C709.992 144.204 712.373 150.328 710.046 155.568L636.748 320.638C636.449 322.173 635.803 323.616 634.875 324.857L511.938 601.715V728.391L766.195 536.117C770.776 532.653 777.318 533.532 780.807 538.082C784.295 542.632 783.409 549.129 778.828 552.593L511.938 754.421V1414.63C511.938 1420.36 507.291 1425 501.559 1425C495.826 1425 491.179 1420.36 491.179 1414.63V600.744L322.461 324.771C319.473 319.885 321.018 313.504 325.91 310.521C330.803 307.537 337.191 309.079 340.178 313.966L406.332 422.173L422.516 294.012C423.229 288.363 428.36 284.366 433.977 285.083C439.594 285.8 443.569 290.961 442.856 296.609L423.462 450.193L500.489 576.186Z" fill="#E3D4C5"/></g></g></g><g id="Background/Ground" transform="translate(408.289 249.788) scale(0.5534764371177022 0.5539866879111842)"><g id="Background/Ground/Small Bush 2"><path id="Fill 1" fill-rule="evenodd" clip-rule="evenodd" d="M383.938 1425H592.237C592.237 1425 604.446 1318.28 526.986 1337.26C476.354 1349.67 484.322 1394.92 484.322 1394.92C484.322 1394.92 456.238 1368.08 426.121 1378.11C396.007 1388.13 383.938 1425 383.938 1425" fill="#E3D4C5"/><path id="Fill 30" fill-rule="evenodd" clip-rule="evenodd" d="M556.938 1425H852.938C852.938 1425 803.871 1311.03 753.196 1360.97C753.196 1360.97 717.725 1263.59 646.779 1278.57C575.835 1293.55 556.938 1425 556.938 1425" fill="#FFF5EE"/></g></g><g id="Background/Ground" transform="translate(234.938 249.788) scale(0.5534764371177022 0.5539866879111842)"><g id="Background/Ground/Tall Tree"><g id="Tall Tree"><path id="Fill 24" fill-rule="evenodd" clip-rule="evenodd" d="M302.208 16.5939C447.391 -19.6805 601.147 4.32121 729.733 80.716C762.435 100.146 801.169 124.056 846.762 153.441C1056.57 288.659 891.95 942.221 517.524 868.172C516.056 867.882 514.594 867.589 513.137 867.294V751.237L778.842 549.457C783.408 545.989 784.291 539.488 780.814 534.934C777.338 530.381 770.818 529.501 766.253 532.968L513.137 725.188V596.384L634.977 321.465C635.559 320.561 636 319.569 636.28 318.524L709.835 152.554C712.155 147.32 709.781 141.201 704.532 138.887C699.283 136.574 693.148 138.941 690.828 144.176L628.618 284.547L596.76 165.402C595.281 159.872 589.587 156.585 584.043 158.059C578.498 159.534 575.202 165.212 576.68 170.742L615.204 314.815L501.269 571.898L424.329 446.235L443.899 292.534C444.622 286.857 440.593 281.67 434.901 280.949C429.208 280.228 424.007 284.246 423.284 289.923L406.988 417.912L341.198 310.459C338.208 305.575 331.813 304.033 326.916 307.016C322.018 309.998 320.472 316.376 323.462 321.26L492.356 597.11V862.835C141.917 783.327 116.757 552.097 94.6814 253.245C84.0901 109.876 188.394 45.0304 302.208 16.5939Z" fill="#FFF5EE"/><path id="Combined Shape" fill-rule="evenodd" clip-rule="evenodd" d="M500.489 576.186L615.5 317.176L577.29 173.995C575.819 168.482 579.099 162.821 584.616 161.351C590.132 159.881 595.797 163.159 597.268 168.671L628.866 287.075L690.985 147.182C693.311 141.942 699.464 139.572 704.728 141.888C709.992 144.204 712.373 150.328 710.046 155.568L636.748 320.638C636.449 322.173 635.803 323.616 634.875 324.857L511.938 601.715V728.391L766.195 536.117C770.776 532.653 777.318 533.532 780.807 538.082C784.295 542.632 783.409 549.129 778.828 552.593L511.938 754.421V1414.63C511.938 1420.36 507.291 1425 501.559 1425C495.826 1425 491.179 1420.36 491.179 1414.63V600.744L322.461 324.771C319.473 319.885 321.018 313.504 325.91 310.521C330.803 307.537 337.191 309.079 340.178 313.966L406.332 422.173L422.516 294.012C423.229 288.363 428.36 284.366 433.977 285.083C439.594 285.8 443.569 290.961 442.856 296.609L423.462 450.193L500.489 576.186Z" fill="#E3D4C5"/></g></g></g></g><g id="Master/Character/Standing" transform="matrix(-1 0 0 1 2182.94 384) scale(0.9989690721649485 1)"><g id="Master/Character/Standing"><g id="Bottom/Standing" transform="translate(0.939453 443) scale(0.998641304347826 1)"><g id="Bottom/Standing/Skating"><g id="Skating"><path id="Fill 1" fill-rule="evenodd" clip-rule="evenodd" d="M595.634 478.223C587.678 474.194 582.132 466.631 580.729 457.849L569.634 384.036C538.612 391.328 507.48 394.246 477.412 394.194L493.34 505.299C494.359 512.401 500.53 517.635 507.729 517.501L632.624 515.182C629.278 497.955 609.179 485.082 595.634 478.223" fill="#f7d3bb"/><path id="Fill 3" fill-rule="evenodd" clip-rule="evenodd" d="M238.338 479.198C236.68 485.538 240.333 492.054 246.621 493.971L363.344 529.559C363.887 511.716 351.481 496.638 340.665 486.942C331.687 478.895 328.681 466.135 333.01 454.901L364.48 373.24C326.7 364.944 294.938 354.21 273.214 345.846L238.338 479.198Z" fill="#f7d3bb"/><g id="Skirt"><path id="Skirt_2" fill-rule="evenodd" clip-rule="evenodd" d="M336.479 0C336.479 0 316.921 0 295.173 85.6104C295.173 85.6104 276.519 240.954 241.875 340.532C241.875 340.532 407.665 422.404 570.223 383.901C570.223 383.901 516.359 98.2514 500.37 0H336.479Z" fill="#E58857"/><mask id="mask0ccdbcf02-1dac-4ef0-b5ea-262b3f71f8d4" mask-type="alpha" maskUnits="userSpaceOnUse" x="241" y="0" width="330" height="395" fill="#ffffff"><path id="Skirt_3" fill-rule="evenodd" clip-rule="evenodd" d="M336.479 0C336.479 0 316.921 0 295.173 85.6104C295.173 85.6104 276.519 240.954 241.875 340.532C241.875 340.532 407.665 422.404 570.223 383.901C570.223 383.901 516.359 98.2514 500.37 0H336.479Z" fill="#ffffff"/></mask><g mask="url(#mask0ccdbcf02-1dac-4ef0-b5ea-262b3f71f8d4)"><g id="Patterns"><path id="Pattern" fill-rule="evenodd" clip-rule="evenodd" d="M320.939 -0.996338V1.99302H363.939V42.8476H320.939V45.837H363.939V85.6952H320.939V88.6845H363.939V129.29H320.939V132.279H363.939V172.387H320.939V175.376H363.939V217.227H366.939V175.376H410.939V217.227H413.939V175.376H457.939V217.227H460.939V175.376H504.939V217.227H507.939V175.376H551.939V217.227H554.939V175.376H598.939V217.227H601.939V0.000115991H600.939V-0.996338H320.939ZM598.939 1.99302H554.939V42.8476H598.939V1.99302ZM551.939 1.99302H507.939V42.8476H551.939V1.99302ZM504.939 1.99302H460.939V42.8476H504.939V1.99302ZM457.939 1.99302H413.939V42.8476H457.939V1.99302ZM410.939 1.99302H366.939V42.8476H410.939V1.99302ZM366.939 172.387V132.279H410.939V172.387H366.939ZM413.939 172.387V132.279H457.939V172.387H413.939ZM413.939 129.29H457.939V88.6845H413.939V129.29ZM460.939 172.387V132.279H504.939V172.387H460.939ZM460.939 129.29H504.939V88.6845H460.939V129.29ZM507.939 172.387V132.279H551.939V172.387H507.939ZM507.939 129.29H551.939V88.6845H507.939V129.29ZM554.939 172.387V132.279H598.939V172.387H554.939ZM554.939 129.29H598.939V88.6845H554.939V129.29ZM366.939 129.29H410.939V88.6845H366.939V129.29ZM366.939 85.6952V45.837H410.939V85.6952H366.939ZM413.939 85.6952V45.837H457.939V85.6952H413.939ZM460.939 85.6952V45.837H504.939V85.6952H460.939ZM507.939 85.6952V45.837H551.939V85.6952H507.939ZM554.939 85.6952V45.837H598.939V85.6952H554.939Z" fill="#E74B33"/></g><g id="Patterns_2"><path id="Pattern_2" fill-rule="evenodd" clip-rule="evenodd" d="M40.9395 -0.996338V1.99302H83.9395V42.8476H40.9395V45.837H83.9395V85.6952H40.9395V88.6845H83.9395V129.29H40.9395V132.279H83.9395V172.387H40.9395V175.376H83.9395V217.227H86.9395V175.376H130.939V217.227H133.939V175.376H177.939V217.227H180.939V175.376H224.939V217.227H227.939V175.376H271.939V217.227H274.939V175.376H318.939V217.227H321.939V0.000115991H320.939V-0.996338H40.9395ZM318.939 1.99302H274.939V42.8476H318.939V1.99302ZM271.939 1.99302H227.939V42.8476H271.939V1.99302ZM224.939 1.99302H180.939V42.8476H224.939V1.99302ZM177.939 1.99302H133.939V42.8476H177.939V1.99302ZM130.939 1.99302H86.9395V42.8476H130.939V1.99302ZM86.9395 172.387V132.279H130.939V172.387H86.9395ZM133.939 172.387V132.279H177.939V172.387H133.939ZM133.939 129.29H177.939V88.6845H133.939V129.29ZM180.939 172.387V132.279H224.939V172.387H180.939ZM180.939 129.29H224.939V88.6845H180.939V129.29ZM227.939 172.387V132.279H271.939V172.387H227.939ZM227.939 129.29H271.939V88.6845H227.939V129.29ZM274.939 172.387V132.279H318.939V172.387H274.939ZM274.939 129.29H318.939V88.6845H274.939V129.29ZM86.9395 129.29H130.939V88.6845H86.9395V129.29ZM86.9395 85.6952V45.837H130.939V85.6952H86.9395ZM133.939 85.6952V45.837H177.939V85.6952H133.939ZM180.939 85.6952V45.837H224.939V85.6952H180.939ZM227.939 85.6952V45.837H271.939V85.6952H227.939ZM274.939 85.6952V45.837H318.939V85.6952H274.939Z" fill="#E74B33"/></g><g id="Patterns_3"><path id="Pattern_3" fill-rule="evenodd" clip-rule="evenodd" d="M320.939 216.231V219.22H363.939V260.075H320.939V263.064H363.939V302.922H320.939V305.912H363.939V346.517H320.939V349.506H363.939V389.614H320.939V392.603H363.939V434.454H366.939V392.603H410.939V434.454H413.939V392.603H457.939V434.454H460.939V392.603H504.939V434.454H507.939V392.603H551.939V434.454H554.939V392.603H598.939V434.454H601.939V217.227H600.939V216.231H320.939ZM598.939 219.22H554.939V260.075H598.939V219.22ZM551.939 219.22H507.939V260.075H551.939V219.22ZM504.939 219.22H460.939V260.075H504.939V219.22ZM457.939 219.22H413.939V260.075H457.939V219.22ZM410.939 219.22H366.939V260.075H410.939V219.22ZM366.939 389.614V349.506H410.939V389.614H366.939ZM413.939 389.614V349.506H457.939V389.614H413.939ZM413.939 346.517H457.939V305.912H413.939V346.517ZM460.939 389.614V349.506H504.939V389.614H460.939ZM460.939 346.517H504.939V305.912H460.939V346.517ZM507.939 389.614V349.506H551.939V389.614H507.939ZM507.939 346.517H551.939V305.912H507.939V346.517ZM554.939 389.614V349.506H598.939V389.614H554.939ZM554.939 346.517H598.939V305.912H554.939V346.517ZM366.939 346.517H410.939V305.912H366.939V346.517ZM366.939 302.922V263.064H410.939V302.922H366.939ZM413.939 302.922V263.064H457.939V302.922H413.939ZM460.939 302.922V263.064H504.939V302.922H460.939ZM507.939 302.922V263.064H551.939V302.922H507.939ZM554.939 302.922V263.064H598.939V302.922H554.939Z" fill="#E74B33"/></g><g id="Patterns_4"><path id="Pattern_4" fill-rule="evenodd" clip-rule="evenodd" d="M40.9395 216.231V219.22H83.9395V260.075H40.9395V263.064H83.9395V302.922H40.9395V305.912H83.9395V346.517H40.9395V349.506H83.9395V389.614H40.9395V392.603H83.9395V434.454H86.9395V392.603H130.939V434.454H133.939V392.603H177.939V434.454H180.939V392.603H224.939V434.454H227.939V392.603H271.939V434.454H274.939V392.603H318.939V434.454H321.939V217.227H320.939V216.231H40.9395ZM318.939 219.22H274.939V260.075H318.939V219.22ZM271.939 219.22H227.939V260.075H271.939V219.22ZM224.939 219.22H180.939V260.075H224.939V219.22ZM177.939 219.22H133.939V260.075H177.939V219.22ZM130.939 219.22H86.9395V260.075H130.939V219.22ZM86.9395 389.614V349.506H130.939V389.614H86.9395ZM133.939 389.614V349.506H177.939V389.614H133.939ZM133.939 346.517H177.939V305.912H133.939V346.517ZM180.939 389.614V349.506H224.939V389.614H180.939ZM180.939 346.517H224.939V305.912H180.939V346.517ZM227.939 389.614V349.506H271.939V389.614H227.939ZM227.939 346.517H271.939V305.912H227.939V346.517ZM274.939 389.614V349.506H318.939V389.614H274.939ZM274.939 346.517H318.939V305.912H274.939V346.517ZM86.9395 346.517H130.939V305.912H86.9395V346.517ZM86.9395 302.922V263.064H130.939V302.922H86.9395ZM133.939 302.922V263.064H177.939V302.922H133.939ZM180.939 302.922V263.064H224.939V302.922H180.939ZM227.939 302.922V263.064H271.939V302.922H227.939ZM274.939 302.922V263.064H318.939V302.922H274.939Z" fill="#E74B33"/></g></g></g><g id="Roller 2"><path id="Fill 8" fill-rule="evenodd" clip-rule="evenodd" d="M507.728 517.501L632.624 515.182C629.277 497.955 609.179 485.082 595.633 478.223C587.678 474.194 582.131 466.631 580.728 457.849L575.07 420.202C571.806 412.88 565.895 405.014 555.508 404.691C535.915 404.081 532.241 449.84 532.241 449.84C507.885 414.784 490.999 428.862 483.793 438.708L493.339 505.299C494.358 512.401 500.529 517.635 507.728 517.501" fill="#3973B0"/><path id="Combined Shape" fill-rule="evenodd" clip-rule="evenodd" d="M519.123 550.802C524.631 553.167 531.295 549.997 534.006 543.723C536.717 537.451 534.449 530.448 528.94 528.085C523.432 525.721 516.768 528.89 514.057 535.164C511.346 541.436 513.614 548.438 519.123 550.802ZM608.276 552.114C613.394 554.824 620.377 551.708 623.874 545.155C627.37 538.6 626.055 531.089 620.937 528.377C615.819 525.667 608.835 528.783 605.339 535.337C601.843 541.892 603.157 549.403 608.276 552.114Z" fill="#010101"/><path id="Combined Shape_2" fill-rule="evenodd" clip-rule="evenodd" d="M581.494 460.242C581.418 460.24 581.312 460.236 581.177 460.231C580.861 460.218 580.496 460.199 580.085 460.173C578.915 460.097 577.613 459.977 576.211 459.802C572.204 459.302 568.195 458.464 564.442 457.204C554.284 453.793 547.81 447.954 547.008 439.113C546.52 433.731 548.853 431.588 553.059 433.044C556.144 434.113 560.339 437.093 565.431 441.592C566.868 442.861 568.358 444.237 569.89 445.702C572.837 448.522 575.803 451.54 578.641 454.558C579.529 455.503 580.348 456.387 581.085 457.194C581.374 456.081 581.703 454.858 582.069 453.549C583.214 449.455 584.484 445.361 585.846 441.535C589.354 431.678 592.793 425.333 596.325 423.836C598.442 422.939 600.459 423.792 602.124 426.268C604.365 429.602 604.495 433.481 602.836 437.707C601.149 442.003 597.688 446.524 592.975 451.11C590.611 453.411 588.08 455.581 585.55 457.556C584.665 458.247 583.842 458.865 583.102 459.401C582.843 459.589 582.612 459.754 582.413 459.895C582.332 459.951 582.268 459.996 582.22 460.029C582.13 460.102 582.025 460.159 581.909 460.196C581.771 460.243 581.63 460.257 581.494 460.242ZM577.181 455.921C574.366 452.927 571.424 449.933 568.505 447.14C566.991 445.692 565.52 444.334 564.104 443.083C559.199 438.75 555.165 435.884 552.402 434.927C549.656 433.976 548.635 434.913 549 438.934C549.716 446.829 555.593 452.129 565.081 455.315C568.693 456.528 572.576 457.34 576.459 457.825C577.433 457.946 578.356 458.04 579.217 458.111C578.59 457.428 577.909 456.695 577.181 455.921ZM584.317 455.987C586.794 454.054 589.27 451.931 591.578 449.684C596.105 445.279 599.411 440.961 600.973 436.981C602.411 433.319 602.304 430.117 600.462 427.378C599.288 425.631 598.243 425.189 597.108 425.67C594.334 426.846 591.02 432.958 587.731 442.202C586.386 445.979 585.129 450.031 583.996 454.084C583.728 455.04 583.481 455.951 583.254 456.804C583.596 456.545 583.951 456.272 584.317 455.987ZM591.275 476.522C591.823 476.652 592.362 476.321 592.49 475.786C592.618 475.253 592.29 474.719 591.758 474.588C578.883 471.534 565.154 472.787 551.886 476.722C549.074 477.556 546.513 478.45 544.251 479.344C543.59 479.606 542.994 479.852 542.466 480.078L533.198 449.551C533.038 449.024 532.48 448.726 531.951 448.886C531.422 449.045 531.123 449.601 531.283 450.128L540.88 481.738C541.058 482.321 541.715 482.611 542.267 482.349C542.382 482.294 542.615 482.188 542.96 482.037C543.539 481.784 544.217 481.502 544.989 481.197C547.198 480.323 549.704 479.449 552.457 478.632C565.418 474.788 578.814 473.566 591.286 476.524L591.275 476.522Z" fill="#94C0E9"/></g><g id="Roller 1"><path id="Fill 11" fill-rule="evenodd" clip-rule="evenodd" d="M246.621 493.971L363.344 529.559C363.887 511.716 351.481 496.638 340.665 486.942C331.687 478.895 328.682 466.134 333.01 454.901L347.833 416.437C347.217 407.702 344.097 399.215 335.081 396.081C308.753 386.928 290.996 436.959 290.996 436.959C290.996 436.959 288.547 410.724 278.138 404.013C272.012 400.063 263.118 405.273 256.188 410.95L238.338 479.198C236.68 485.538 240.333 492.054 246.621 493.971" fill="#3973B0"/><path id="Combined Shape_3" fill-rule="evenodd" clip-rule="evenodd" d="M261.896 532.194C266.919 527.692 267.78 520.484 263.819 516.096C259.858 511.706 252.574 511.798 247.55 516.299C242.527 520.801 241.665 528.008 245.627 532.398C249.588 536.788 256.872 536.696 261.896 532.194ZM331.21 550.283C337.066 546.582 339.484 539.922 336.611 535.408C333.738 530.895 326.662 530.235 320.806 533.935C314.95 537.637 312.532 544.296 315.405 548.81C318.278 553.323 325.354 553.984 331.21 550.283Z" fill="#010101"/><path id="Combined Shape_4" fill-rule="evenodd" clip-rule="evenodd" d="M329.72 462.78C329.647 462.668 329.516 462.46 329.334 462.161C329.033 461.668 328.699 461.098 328.339 460.46C327.313 458.639 326.288 456.626 325.331 454.476C323.074 449.404 321.544 444.374 321.078 439.643C320.384 432.603 322.111 426.737 326.806 422.556C330.482 419.281 333.404 419.696 334.724 423.443C335.691 426.187 335.856 430.783 335.388 436.922C335.022 441.712 334.287 447.202 333.309 452.996C332.952 455.115 332.581 457.158 332.212 459.075C332.169 459.299 332.127 459.515 332.086 459.725C333.457 458.744 334.963 457.694 336.572 456.607C341.226 453.46 345.89 450.568 350.284 448.205C355.947 445.16 360.764 443.21 364.498 442.635C369.221 441.907 372.313 443.439 372.969 447.512C374.14 454.775 366.316 459.09 352.69 461.366C348.027 462.144 342.963 462.627 337.835 462.874C336.015 462.962 334.307 463.014 332.753 463.038C332.106 463.048 331.564 463.052 331.14 463.052C330.709 463.354 330.055 463.296 329.72 462.78ZM331.337 452.665C330.982 454.769 330.614 456.797 330.248 458.7C330.195 458.978 330.143 459.245 330.093 459.501L330.083 459.484C329.087 457.715 328.09 455.757 327.16 453.668C324.982 448.775 323.511 443.938 323.068 439.449C322.432 432.99 323.975 427.75 328.139 424.042C330.831 421.644 332.031 421.815 332.837 424.103C333.684 426.507 333.842 430.896 333.393 436.77C333.033 441.492 332.306 446.926 331.337 452.665ZM337.738 460.884C342.794 460.639 347.783 460.164 352.359 459.4C364.939 457.3 371.902 453.459 370.995 447.828C370.541 445.01 368.556 444.026 364.804 444.604C361.347 445.137 356.713 447.013 351.234 449.959C346.907 452.285 342.298 455.144 337.694 458.256C336.273 459.217 334.932 460.148 333.697 461.027C334.96 460.999 336.314 460.953 337.738 460.884ZM297.465 466.89C295.016 466.485 292.741 466.171 290.697 465.937C290.122 465.871 289.599 465.815 289.13 465.769L291.991 437.058C292.046 436.51 291.645 436.022 291.095 435.968C290.545 435.913 290.056 436.313 290.001 436.861L287.04 466.572C286.985 467.129 287.4 467.622 287.959 467.664C288.069 467.673 288.288 467.691 288.607 467.721C289.144 467.772 289.767 467.836 290.469 467.917C292.48 468.147 294.722 468.456 297.137 468.856C304.035 469.998 310.932 471.634 317.36 473.849C325.83 476.768 332.826 480.475 337.84 485.044C338.248 485.416 338.881 485.387 339.253 484.981C339.626 484.575 339.598 483.945 339.19 483.574C333.945 478.795 326.72 474.965 318.013 471.965C311.469 469.71 304.466 468.05 297.465 466.89Z" fill="#94C0E9"/></g></g></g></g><g id="Head" transform="translate(268.939 82) scale(0.9953051643192489 1)"><g id="Head/Afro"><ellipse id="Oval" cx="102.939" cy="83" rx="78" ry="70" fill="#010101"/><g id="Shaved"><path id="Skin" fill-rule="evenodd" clip-rule="evenodd" d="M108.645 51.0007C77.0915 51.0007 51.5125 73.7597 51.5125 101.835C51.5125 107.583 52.6005 113.101 54.5765 118.253C54.3825 118.248 54.1915 118.229 53.9955 118.229C45.6805 118.229 38.9395 123.774 38.9395 130.615C38.9395 137.456 45.6805 143.001 53.9955 143.001C58.5915 143.001 62.7015 141.302 65.4605 138.63C66.4575 137.666 67.9985 137.562 69.0525 138.464C76.7725 145.075 86.5695 149.777 97.4935 151.701C98.8975 151.948 99.8895 153.212 99.8075 154.635L98.2475 182H124.686L123.462 160.5C123.165 155.311 126.202 150.453 131.06 148.608C151.472 140.854 165.778 122.831 165.778 101.835C165.778 73.7597 140.199 51.0007 108.645 51.0007Z" fill="#f7d3bb"/><path id="Hair" fill-rule="evenodd" clip-rule="evenodd" d="M108.647 51.0002C77.0927 51.0002 51.5137 73.7592 51.5137 101.834C51.5137 107.582 52.6017 113.101 54.5777 118.253L59.7817 125.995C60.9697 127.763 62.9877 128.788 65.1157 128.707L68.6137 128.572C70.8207 128.372 72.3067 126.222 71.7147 124.087L67.6607 109.466C75.7577 100.516 76.2407 77.5792 76.2407 77.5792C99.4777 89.1972 166.861 79.1272 148.945 65.8032C138.614 56.6562 124.374 51.0002 108.647 51.0002" fill="#010101"/></g></g></g><g id="Face" transform="translate(351.939 173) scale(0.989010989010989 1)"><g id="Face/Love"><g id="Group 9"><path id="Stroke 1" fill-rule="evenodd" clip-rule="evenodd" d="M32.874 20.3428C34.1426 19.153 35.3957 18.2358 36.6118 17.6957C37.9949 17.0814 39.3042 16.9713 40.47 17.513C42.9782 18.6787 42.1401 22.8002 39.3428 28.2859C36.9241 33.0292 33.5211 37.6394 30.9598 39.4497C29.2165 40.6816 27.268 39.833 25.5034 37.6162C24.0556 35.7974 22.6778 33.0092 21.6438 29.8713C19.2888 22.7242 19.2174 15.944 22.3078 13.2829C24.244 11.6159 26.1947 11.6012 27.7839 13.0703C28.9277 14.1277 29.8326 15.8888 30.5785 18.1796C30.9479 19.314 31.2565 20.5162 31.5093 21.7235C31.9431 21.2522 32.3999 20.7875 32.874 20.3428Z" fill="#E74B33"/><path id="Stroke 3" fill-rule="evenodd" clip-rule="evenodd" d="M61.1971 21.6193C63.5747 19.5806 66.2791 18.5572 69.2007 19.174C71.1556 19.5866 71.7728 21.3214 71.2949 23.6726C70.9276 25.4798 69.9138 27.7719 68.4629 30.2015C65.4851 35.1877 61.5762 39.425 59.2395 39.6704C56.3737 39.9713 52.9547 35.1296 50.8356 29.0907C49.8565 26.3002 49.3486 23.673 49.4685 21.6994C49.6218 19.1762 50.849 17.5948 53.0932 17.6883C55.6091 17.7927 57.5677 19.093 59.0061 21.1453C59.38 21.6787 59.6995 22.2369 59.9693 22.8017C60.3437 22.3978 60.7534 21.9998 61.1971 21.6193Z" fill="#E74B33"/><path id="Stroke 7" fill-rule="evenodd" clip-rule="evenodd" d="M32.9025 47.2536C32.5345 46.5114 32.8377 45.6114 33.5799 45.2433C34.3221 44.8752 35.2221 45.1785 35.5902 45.9207C35.6664 46.0744 35.853 46.3884 36.151 46.7946C36.6583 47.4861 37.2804 48.1435 38.0149 48.7034C40.0577 50.2607 42.5694 50.7996 45.7265 49.8744C46.5215 49.6414 47.3549 50.097 47.5878 50.892C47.8208 51.687 47.3652 52.5203 46.5702 52.7533C42.4659 53.9561 38.9741 53.2069 36.1961 51.0892C35.217 50.3428 34.3998 49.4793 33.7321 48.5691C33.3251 48.0143 33.0515 47.5539 32.9025 47.2536Z" fill="#010101"/></g></g></g><g id="Body" transform="translate(87.9395 44) scale(0.9988674971687429 1)"><g id="Body/Selfie"><g id="Body"><path id="Skin" fill-rule="evenodd" clip-rule="evenodd" d="M522.588 302.937C495.794 277.379 455.092 257.804 455.092 257.804L443.93 274.319L419.999 342.872C510.038 420.122 559.896 413.786 576.199 396.443C600.244 370.863 616.347 191.784 616.347 191.784C616.347 191.784 623.6 185.343 630.721 169.159C641.577 144.488 633.178 137.408 633.178 137.408C630.157 119.498 618.721 118.635 618.721 118.635C618.721 118.635 616.132 103.1 608.58 102.668C601.028 102.237 595.849 110.22 595.849 110.22C596.065 104.178 590.847 60.1718 590.847 60.1718C590.847 60.1718 587.217 35.3448 577.292 47.2128C569.108 56.9982 572.366 96.2683 573.761 109.749C570.453 84.0865 560.314 62.5208 560.314 62.5208C560.314 62.5208 550.967 46.3498 545.141 52.6078C539.315 58.8658 549.297 124.556 549.297 124.556C549.297 124.556 541.257 123.814 534.352 133.74C524.517 147.877 549.729 182.335 549.729 182.335L522.588 302.937ZM574.271 114.32C574.127 112.785 573.956 111.26 573.761 109.749C574.058 112.619 574.271 114.32 574.271 114.32ZM147.967 332.494L183.6 271.656L230.077 353.779L199.619 410.128C193.243 423.437 173.043 451.529 161.66 460.921C145.622 474.152 123.618 483.807 108.244 456.83C81.3386 409.62 68.1396 253.266 68.1396 253.266C57.6214 230.402 57.85 190.647 57.9666 170.369C57.9795 168.137 57.9909 166.141 57.9866 164.429C57.9852 163.871 58.238 163.307 58.7067 162.742C62.2828 150.911 82.9594 139.164 104.338 130.761C131.756 119.987 112.19 145.277 112.19 145.277C112.19 145.277 121.979 136.277 125.631 139.929C129.269 143.568 126.001 151.822 123.637 154.317C123.637 154.317 135.666 146.931 136.216 154.595C136.505 158.627 133.336 164.386 128.44 171.586C128.44 171.586 138.797 163.609 140.731 168.134C142.92 173.26 142.263 178.21 131.32 195.201C126.352 202.915 121.978 209.168 118.683 213.696L147.967 332.494ZM267.775 220.748C267.775 220.748 294.883 212.683 341.443 219.043C341.443 219.043 326.81 228.383 306.763 229.226C285.057 230.138 267.775 220.748 267.775 220.748Z" fill="#f7d3bb"/><path id="Skin Shadows" fill-rule="evenodd" clip-rule="evenodd" d="M575.942 146.483C576.684 149.06 578.822 150.61 582.368 150.857C586.667 151.156 589.958 149.889 594.676 145.291C594.521 145.685 594.368 146.084 594.217 146.488C593.154 149.34 592.328 152.132 591.828 154.765C590.615 161.159 591.415 166.04 594.974 168.677C598.758 171.482 603.731 167.585 610.518 158.266C615.961 150.795 624.702 142.96 628.733 141.391C629.248 141.19 629.503 140.611 629.302 140.096C629.102 139.581 628.522 139.327 628.008 139.527C623.562 141.257 614.55 149.335 608.901 157.089C602.834 165.419 598.51 168.809 596.165 167.07C593.39 165.014 592.708 160.857 593.793 155.138C594.269 152.628 595.065 149.94 596.091 147.187C596.705 145.539 597.363 143.97 598.021 142.533C598.251 142.031 598.465 141.582 598.656 141.192C598.761 140.978 598.837 140.826 598.881 140.741C598.974 140.57 599.16 140.242 599.434 139.778C599.893 139.001 600.43 138.134 601.039 137.199C602.78 134.528 604.748 131.857 606.899 129.368C610.864 124.779 614.985 121.35 619.12 119.552C619.626 119.332 619.858 118.742 619.638 118.236C619.418 117.73 618.828 117.497 618.322 117.718C613.867 119.655 609.53 123.265 605.386 128.061C603.171 130.624 601.151 133.365 599.364 136.107C598.738 137.067 598.186 137.959 597.712 138.761C597.546 139.042 597.401 139.293 597.278 139.509C597.239 139.578 597.206 139.637 597.18 139.684C590.469 147.381 587.198 149.189 582.507 148.862C579.568 148.657 578.069 147.499 577.723 145.317C577.917 145.007 577.933 144.601 577.73 144.267C577.704 144.224 577.676 144.184 577.645 144.147C577.647 143.907 577.66 143.658 577.682 143.399C577.958 140.206 579.75 135.808 582.761 130.554C584.021 128.356 585.472 126.048 587.076 123.666C589.163 120.567 591.401 117.499 593.639 114.601C594.423 113.587 595.15 112.667 595.802 111.859C596.03 111.576 596.232 111.328 596.406 111.115C596.51 110.989 596.581 110.903 596.617 110.86C596.97 110.436 596.913 109.805 596.489 109.452C596.065 109.098 595.434 109.155 595.08 109.579C595.041 109.626 594.967 109.716 594.86 109.847C594.682 110.063 594.476 110.316 594.245 110.603C593.584 111.423 592.849 112.353 592.057 113.379C589.794 116.308 587.531 119.41 585.417 122.549C584.975 123.206 584.543 123.858 584.124 124.504C582.416 124.62 576.065 124.539 566.746 124.311C565.097 124.271 563.38 124.227 561.612 124.179C558.549 124.097 555.478 124.008 552.549 123.92C551.524 123.889 550.59 123.86 549.765 123.835C549.27 123.819 548.922 123.808 548.739 123.802C548.187 123.785 547.725 124.218 547.707 124.77C547.69 125.322 548.123 125.784 548.675 125.801C548.859 125.807 549.207 125.818 549.703 125.834C550.528 125.859 551.463 125.888 552.489 125.919C555.42 126.007 558.493 126.096 561.558 126.178C563.328 126.226 565.046 126.27 566.698 126.311C574.437 126.5 580.014 126.589 582.828 126.545C582.193 127.568 581.591 128.574 581.026 129.559C577.881 135.046 575.997 139.672 575.69 143.227C575.656 143.615 575.642 143.99 575.647 144.351C574.514 145.005 573.114 145.747 571.488 146.559C570.814 146.896 570.107 147.242 569.369 147.597C567.249 148.616 564.977 149.66 562.704 150.67C561.908 151.023 561.169 151.347 560.507 151.635C560.11 151.808 559.826 151.929 559.676 151.993C558.797 152.368 558.894 153.645 559.82 153.882C559.882 153.898 560.013 153.934 560.21 153.992C560.547 154.091 560.943 154.217 561.396 154.37C562.699 154.81 564.189 155.384 565.839 156.106C570.57 158.176 575.632 161.017 580.815 164.75C581.263 165.072 581.888 164.971 582.211 164.523C582.534 164.074 582.432 163.449 581.984 163.127C576.682 159.309 571.497 156.398 566.641 154.274C565.285 153.681 564.031 153.183 562.892 152.774C563.096 152.684 563.304 152.592 563.516 152.497C565.806 151.48 568.096 150.428 570.235 149.4C570.982 149.041 571.699 148.69 572.382 148.348C573.722 147.679 574.915 147.055 575.942 146.483ZM521.941 302.404C521.818 301.866 522.156 301.33 522.694 301.208C523.233 301.085 523.768 301.422 523.891 301.961L527.904 319.604C528.026 320.142 527.689 320.678 527.151 320.801C526.612 320.923 526.076 320.586 525.954 320.047L521.941 302.404ZM111.78 144.365C112.284 144.139 112.876 144.364 113.102 144.868C113.328 145.372 113.102 145.964 112.599 146.19C112.539 146.216 112.421 146.27 112.249 146.35C111.959 146.483 111.622 146.641 111.243 146.822C110.156 147.34 108.945 147.938 107.64 148.609C103.913 150.526 100.185 152.638 96.7112 154.879C89.3847 159.606 84.1971 164.258 82.1222 168.494C82.0636 168.614 82.0076 168.733 81.9542 168.852C81.7275 169.355 81.1355 169.58 80.6319 169.353C80.1282 169.127 79.9037 168.535 80.1303 168.031C80.1927 167.892 80.258 167.753 80.3262 167.614C82.6056 162.961 88.0153 158.11 95.6268 153.199C99.1615 150.918 102.944 148.775 106.726 146.831C108.049 146.15 109.278 145.543 110.382 145.017C110.769 144.832 111.113 144.671 111.41 144.534C111.59 144.451 111.714 144.394 111.78 144.365ZM124.401 153.672C124.045 153.25 123.414 153.197 122.992 153.553L122.665 153.829L121.741 154.609C120.747 155.449 119.638 156.385 118.445 157.394C115.035 160.276 111.625 163.162 108.442 165.862L108.33 165.957C100.604 172.51 95.5019 176.872 94.1889 178.065C93.7802 178.437 93.7501 179.069 94.1216 179.478C94.4931 179.887 95.1255 179.917 95.5342 179.545C96.8208 178.376 101.931 174.007 109.624 167.482L109.736 167.387C112.918 164.688 116.327 161.803 119.736 158.921C120.929 157.913 122.037 156.976 123.032 156.137L123.955 155.357L124.281 155.082C124.704 154.725 124.757 154.095 124.401 153.672ZM127.755 170.857C128.157 170.479 128.79 170.499 129.168 170.901C129.547 171.304 129.527 171.936 129.125 172.315L128.806 172.615C128.545 172.86 128.243 173.145 127.903 173.467C126.93 174.387 125.847 175.415 124.679 176.527C121.345 179.704 118.01 182.916 114.899 185.961C114.589 186.264 114.283 186.564 113.98 186.862C108.143 192.595 103.92 196.942 101.966 199.308C101.614 199.734 100.983 199.794 100.558 199.442C100.132 199.09 100.072 198.46 100.424 198.034C102.439 195.595 106.689 191.219 112.578 185.435C112.882 185.137 113.189 184.836 113.5 184.531C116.619 181.479 119.959 178.262 123.3 175.079C124.469 173.965 125.555 172.935 126.529 172.014C126.87 171.691 127.173 171.405 127.434 171.159L127.755 170.857ZM147.427 331.652C146.962 331.949 146.826 332.568 147.124 333.033C147.153 333.079 147.226 333.207 147.336 333.422C147.53 333.803 147.749 334.288 147.987 334.884C148.679 336.616 149.376 338.883 150.029 341.744C151.909 349.984 153.041 361.32 153.041 376.227C153.041 376.779 153.489 377.227 154.041 377.227C154.593 377.227 155.041 376.779 155.041 376.227C155.041 361.177 153.895 349.694 151.979 341.299C151.303 338.339 150.576 335.973 149.844 334.142C149.394 333.016 149.033 332.306 148.809 331.955C148.511 331.49 147.892 331.354 147.427 331.652Z" fill="#9B7368"/><g id="Tshirt"><path id="Tshirt_2" fill-rule="evenodd" clip-rule="evenodd" d="M267.929 220.829C253.45 224.084 238.454 229.477 220.651 237.605C177.489 257.311 158.596 313.55 158.596 313.55C158.596 313.55 185.386 346.039 215.612 352.372L189.416 408.219C189.416 408.219 283.837 453.702 426.044 415.415L419.999 342.872C419.999 342.872 452.467 312.735 466.032 263.673C466.032 263.673 423.675 229.359 357.019 220.867C351.288 220.137 345.85 219.489 340.655 218.937C340.917 218.972 341.18 219.007 341.443 219.043C341.443 219.043 326.81 228.383 306.763 229.226C286.245 230.088 269.68 221.745 267.929 220.829Z" fill="#5BA092"/><g id="Object"><mask id="mask055fb166d-948b-4c42-8195-0fd61059d718" mask-type="alpha" maskUnits="userSpaceOnUse" x="158" y="218" width="309" height="213" fill="#ffffff"><path id="Tshirt_3" fill-rule="evenodd" clip-rule="evenodd" d="M267.929 220.829C253.45 224.084 238.454 229.477 220.651 237.605C177.489 257.311 158.596 313.55 158.596 313.55C158.596 313.55 185.386 346.039 215.612 352.372L189.416 408.219C189.416 408.219 283.837 453.702 426.044 415.415L419.999 342.872C419.999 342.872 452.467 312.735 466.032 263.673C466.032 263.673 423.675 229.359 357.019 220.867C351.288 220.137 345.85 219.489 340.655 218.937C340.917 218.972 341.18 219.007 341.443 219.043C341.443 219.043 326.81 228.383 306.763 229.226C286.245 230.088 269.68 221.745 267.929 220.829Z" fill="#ffffff"/></mask><g mask="url(#mask055fb166d-948b-4c42-8195-0fd61059d718)"><g id="Patterns"><path id="Pattern" fill-rule="evenodd" clip-rule="evenodd" d="M80.0728 220.046C79.2694 220.248 78.782 221.063 78.9842 221.866L81.4243 231.564C81.6264 232.367 82.4415 232.855 83.2449 232.653C84.0483 232.451 84.5357 231.635 84.3336 230.832L81.8935 221.134C81.6914 220.331 80.8762 219.844 80.0728 220.046ZM297.535 225.417C297.213 224.654 296.334 224.296 295.57 224.618L286.356 228.503C285.592 228.824 285.234 229.704 285.556 230.467C285.878 231.231 286.758 231.589 287.521 231.267L296.736 227.382C297.499 227.06 297.857 226.181 297.535 225.417ZM114.308 239.027C114.308 239.855 114.98 240.527 115.808 240.527H125.808C126.637 240.527 127.308 239.855 127.308 239.027C127.308 238.198 126.637 237.527 125.808 237.527H115.808C114.98 237.527 114.308 238.198 114.308 239.027ZM224.839 242.479C224.276 243.086 224.311 244.035 224.918 244.599L232.246 251.404C232.853 251.967 233.802 251.932 234.366 251.325C234.929 250.718 234.894 249.769 234.287 249.205L226.959 242.401C226.352 241.837 225.403 241.872 224.839 242.479ZM96.8081 373.527C95.9797 373.527 95.3081 372.855 95.3081 372.027C95.3081 371.198 95.9797 370.527 96.8081 370.527H106.808C107.637 370.527 108.308 371.198 108.308 372.027C108.308 372.855 107.637 373.527 106.808 373.527H96.8081ZM233.308 401.027C233.308 401.855 233.98 402.527 234.808 402.527H244.808C245.637 402.527 246.308 401.855 246.308 401.027C246.308 400.198 245.637 399.527 244.808 399.527H234.808C233.98 399.527 233.308 400.198 233.308 401.027ZM152.785 263.618C153.548 263.296 154.428 263.654 154.75 264.417C155.072 265.181 154.714 266.06 153.95 266.382L144.736 270.267C143.972 270.589 143.093 270.231 142.771 269.467C142.449 268.704 142.807 267.824 143.57 267.503L152.785 263.618ZM292.75 293.417C292.428 292.654 291.548 292.296 290.785 292.618L281.57 296.503C280.807 296.824 280.449 297.704 280.771 298.467C281.093 299.231 281.972 299.589 282.736 299.267L291.95 295.382C292.714 295.06 293.072 294.181 292.75 293.417ZM133.785 396.618C134.548 396.296 135.428 396.654 135.75 397.417C136.072 398.181 135.714 399.06 134.95 399.382L125.736 403.267C124.972 403.589 124.093 403.231 123.771 402.467C123.449 401.704 123.807 400.824 124.57 400.503L133.785 396.618ZM179.464 234.278C179.311 233.463 179.847 232.679 180.661 232.526C181.475 232.373 182.259 232.908 182.413 233.722L184.263 243.55C184.416 244.364 183.88 245.148 183.066 245.301C182.252 245.455 181.468 244.919 181.314 244.105L179.464 234.278ZM321.133 266.552C320.319 266.706 319.783 267.49 319.937 268.304L321.787 278.131C321.94 278.946 322.724 279.481 323.538 279.328C324.352 279.175 324.888 278.391 324.735 277.576L322.885 267.749C322.731 266.935 321.947 266.399 321.133 266.552ZM162.937 372.304C162.783 371.49 163.319 370.706 164.133 370.552C164.947 370.399 165.731 370.935 165.885 371.749L167.735 381.576C167.888 382.391 167.352 383.175 166.538 383.328C165.724 383.481 164.94 382.946 164.787 382.131L162.937 372.304ZM302.133 399.552C301.319 399.706 300.783 400.49 300.937 401.304L302.787 411.131C302.94 411.946 303.724 412.481 304.538 412.328C305.352 412.175 305.888 411.391 305.735 410.576L303.885 400.749C303.731 399.935 302.947 399.399 302.133 399.552ZM125.722 301.187C125.637 300.363 126.236 299.626 127.06 299.541C127.884 299.456 128.621 300.055 128.707 300.879L129.734 310.826C129.819 311.65 129.22 312.387 128.396 312.472C127.572 312.557 126.835 311.958 126.75 311.134L125.722 301.187ZM265.06 328.541C264.236 328.626 263.637 329.363 263.722 330.187L264.75 340.134C264.835 340.958 265.572 341.557 266.396 341.472C267.22 341.387 267.819 340.65 267.734 339.826L266.707 329.879C266.621 329.055 265.884 328.456 265.06 328.541ZM238.446 275.154C238.361 274.33 238.96 273.593 239.784 273.508C240.608 273.423 241.345 274.022 241.431 274.846L242.458 284.793C242.543 285.617 241.944 286.354 241.12 286.439C240.296 286.524 239.559 285.925 239.474 285.101L238.446 275.154ZM108.06 424.508C107.236 424.593 106.637 425.33 106.722 426.154L107.75 436.101C107.835 436.925 108.572 437.524 109.396 437.439C110.22 437.354 110.819 436.617 110.734 435.793L109.707 425.846C109.621 425.022 108.884 424.423 108.06 424.508ZM163.716 309.339C163.012 308.903 162.794 307.979 163.23 307.274C163.666 306.57 164.59 306.352 165.295 306.788L173.799 312.049C174.503 312.485 174.721 313.409 174.285 314.114C173.85 314.818 172.925 315.036 172.221 314.6L163.716 309.339ZM301.23 336.274C300.794 336.979 301.012 337.903 301.716 338.339L310.221 343.6C310.925 344.036 311.85 343.818 312.285 343.114C312.721 342.409 312.503 341.485 311.799 341.049L303.295 335.788C302.59 335.352 301.666 335.57 301.23 336.274ZM81.397 296.522C80.6082 296.775 79.7635 296.341 79.5103 295.552C79.257 294.763 79.6912 293.919 80.48 293.665L90.0014 290.609C90.7902 290.355 91.6349 290.79 91.8881 291.578C92.1413 292.367 91.7071 293.212 90.9184 293.465L81.397 296.522ZM217.51 324.552C217.763 325.341 218.608 325.775 219.397 325.522L228.918 322.465C229.707 322.212 230.141 321.367 229.888 320.578C229.635 319.79 228.79 319.355 228.001 319.609L218.48 322.665C217.691 322.919 217.257 323.763 217.51 324.552ZM63.8974 426.985C63.1086 427.238 62.2639 426.804 62.0107 426.016C61.7575 425.227 62.1916 424.382 62.9804 424.129L72.5018 421.072C73.2906 420.819 74.1353 421.253 74.3885 422.042C74.6417 422.831 74.2076 423.675 73.4188 423.929L63.8974 426.985ZM65.4838 351.366C65.2817 350.563 65.7691 349.747 66.5725 349.545C67.3759 349.343 68.191 349.831 68.3931 350.634L70.8332 360.332C71.0354 361.135 70.548 361.95 69.7446 362.152C68.9412 362.355 68.126 361.867 67.9239 361.064L65.4838 351.366ZM199.572 380.545C198.769 380.747 198.282 381.563 198.484 382.366L200.924 392.064C201.126 392.867 201.941 393.355 202.745 393.152C203.548 392.95 204.035 392.135 203.833 391.332L201.393 381.634C201.191 380.831 200.376 380.343 199.572 380.545ZM254.484 427.366C254.282 426.563 254.769 425.747 255.572 425.545C256.376 425.343 257.191 425.831 257.393 426.634L259.833 436.332C260.035 437.135 259.548 437.95 258.745 438.152C257.941 438.355 257.126 437.867 256.924 437.064L254.484 427.366ZM195.517 304.715C195.782 305.5 196.633 305.921 197.418 305.656L206.892 302.454C207.677 302.189 208.098 301.338 207.832 300.553C207.567 299.768 206.716 299.347 205.931 299.612L196.458 302.814C195.673 303.079 195.252 303.931 195.517 304.715ZM331.919 325.123C331.134 325.389 330.283 324.967 330.018 324.183C329.753 323.398 330.174 322.547 330.959 322.281L340.432 319.079C341.217 318.814 342.068 319.235 342.333 320.02C342.599 320.805 342.177 321.656 341.393 321.921L331.919 325.123ZM176.018 436.183C176.283 436.967 177.134 437.389 177.919 437.123L187.393 433.921C188.177 433.656 188.599 432.805 188.333 432.02C188.068 431.235 187.217 430.814 186.432 431.079L176.959 434.281C176.174 434.547 175.753 435.398 176.018 436.183ZM91.7066 322.298C91.4863 321.5 91.9551 320.674 92.7537 320.453C93.5523 320.233 94.3783 320.702 94.5986 321.501L97.2579 331.14C97.4782 331.939 97.0094 332.765 96.2108 332.985C95.4122 333.206 94.5862 332.737 94.3659 331.938L91.7066 322.298ZM230.754 349.453C229.955 349.674 229.486 350.5 229.707 351.298L232.366 360.938C232.586 361.737 233.412 362.206 234.211 361.985C235.009 361.765 235.478 360.939 235.258 360.14L232.599 350.501C232.378 349.702 231.552 349.233 230.754 349.453ZM138.588 366.879C137.952 367.41 137.007 367.325 136.476 366.689C135.945 366.053 136.03 365.107 136.666 364.576L144.342 358.167C144.978 357.637 145.924 357.722 146.455 358.358C146.986 358.993 146.901 359.939 146.265 360.47L138.588 366.879ZM274.476 395.689C275.007 396.325 275.952 396.41 276.588 395.879L284.265 389.47C284.901 388.939 284.986 387.993 284.455 387.358C283.924 386.722 282.978 386.637 282.342 387.167L274.666 393.576C274.03 394.107 273.945 395.053 274.476 395.689ZM189.062 360.394C188.237 360.467 187.509 359.857 187.436 359.032C187.363 358.207 187.972 357.478 188.797 357.405L198.758 356.523C199.584 356.45 200.312 357.06 200.385 357.885C200.458 358.71 199.848 359.438 199.023 359.511L189.062 360.394ZM325.436 388.032C325.509 388.857 326.237 389.467 327.062 389.394L337.023 388.511C337.848 388.438 338.458 387.71 338.385 386.885C338.312 386.06 337.584 385.45 336.758 385.523L326.797 386.405C325.972 386.478 325.363 387.207 325.436 388.032Z" fill="#F4F0F0"/></g><g id="Patterns_2"><path id="Pattern_2" fill-rule="evenodd" clip-rule="evenodd" d="M360.073 220.046C359.269 220.248 358.782 221.063 358.984 221.866L361.424 231.564C361.626 232.367 362.442 232.855 363.245 232.653C364.048 232.451 364.536 231.635 364.334 230.832L361.893 221.134C361.691 220.331 360.876 219.844 360.073 220.046ZM577.535 225.417C577.213 224.654 576.334 224.296 575.57 224.618L566.356 228.503C565.592 228.824 565.234 229.704 565.556 230.467C565.878 231.231 566.758 231.589 567.521 231.267L576.736 227.382C577.499 227.06 577.857 226.181 577.535 225.417ZM394.308 239.027C394.308 239.855 394.98 240.527 395.808 240.527H405.808C406.637 240.527 407.308 239.855 407.308 239.027C407.308 238.198 406.637 237.527 405.808 237.527H395.808C394.98 237.527 394.308 238.198 394.308 239.027ZM504.839 242.479C504.276 243.086 504.311 244.035 504.918 244.599L512.246 251.404C512.853 251.967 513.802 251.932 514.366 251.325C514.929 250.718 514.894 249.769 514.287 249.205L506.959 242.401C506.352 241.837 505.403 241.872 504.839 242.479ZM376.808 373.527C375.98 373.527 375.308 372.855 375.308 372.027C375.308 371.198 375.98 370.527 376.808 370.527H386.808C387.637 370.527 388.308 371.198 388.308 372.027C388.308 372.855 387.637 373.527 386.808 373.527H376.808ZM513.308 401.027C513.308 401.855 513.98 402.527 514.808 402.527H524.808C525.637 402.527 526.308 401.855 526.308 401.027C526.308 400.198 525.637 399.527 524.808 399.527H514.808C513.98 399.527 513.308 400.198 513.308 401.027ZM432.785 263.618C433.548 263.296 434.428 263.654 434.75 264.417C435.072 265.181 434.714 266.06 433.95 266.382L424.736 270.267C423.972 270.589 423.093 270.231 422.771 269.467C422.449 268.704 422.807 267.824 423.57 267.503L432.785 263.618ZM572.75 293.417C572.428 292.654 571.548 292.296 570.785 292.618L561.57 296.503C560.807 296.824 560.449 297.704 560.771 298.467C561.093 299.231 561.972 299.589 562.736 299.267L571.95 295.382C572.714 295.06 573.072 294.181 572.75 293.417ZM413.785 396.618C414.548 396.296 415.428 396.654 415.75 397.417C416.072 398.181 415.714 399.06 414.95 399.382L405.736 403.267C404.972 403.589 404.093 403.231 403.771 402.467C403.449 401.704 403.807 400.824 404.57 400.503L413.785 396.618ZM459.464 234.278C459.311 233.463 459.847 232.679 460.661 232.526C461.475 232.373 462.259 232.908 462.413 233.722L464.263 243.55C464.416 244.364 463.88 245.148 463.066 245.301C462.252 245.455 461.468 244.919 461.314 244.105L459.464 234.278ZM601.133 266.552C600.319 266.706 599.783 267.49 599.937 268.304L601.787 278.131C601.94 278.946 602.724 279.481 603.538 279.328C604.352 279.175 604.888 278.391 604.735 277.576L602.885 267.749C602.731 266.935 601.947 266.399 601.133 266.552ZM442.937 372.304C442.783 371.49 443.319 370.706 444.133 370.552C444.947 370.399 445.731 370.935 445.885 371.749L447.735 381.576C447.888 382.391 447.352 383.175 446.538 383.328C445.724 383.481 444.94 382.946 444.787 382.131L442.937 372.304ZM582.133 399.552C581.319 399.706 580.783 400.49 580.937 401.304L582.787 411.131C582.94 411.946 583.724 412.481 584.538 412.328C585.352 412.175 585.888 411.391 585.735 410.576L583.885 400.749C583.731 399.935 582.947 399.399 582.133 399.552ZM405.722 301.187C405.637 300.363 406.236 299.626 407.06 299.541C407.884 299.456 408.621 300.055 408.707 300.879L409.734 310.826C409.819 311.65 409.22 312.387 408.396 312.472C407.572 312.557 406.835 311.958 406.75 311.134L405.722 301.187ZM545.06 328.541C544.236 328.626 543.637 329.363 543.722 330.187L544.75 340.134C544.835 340.958 545.572 341.557 546.396 341.472C547.22 341.387 547.819 340.65 547.734 339.826L546.707 329.879C546.621 329.055 545.884 328.456 545.06 328.541ZM518.446 275.154C518.361 274.33 518.96 273.593 519.784 273.508C520.608 273.423 521.345 274.022 521.431 274.846L522.458 284.793C522.543 285.617 521.944 286.354 521.12 286.439C520.296 286.524 519.559 285.925 519.474 285.101L518.446 275.154ZM388.06 424.508C387.236 424.593 386.637 425.33 386.722 426.154L387.75 436.101C387.835 436.925 388.572 437.524 389.396 437.439C390.22 437.354 390.819 436.617 390.734 435.793L389.707 425.846C389.621 425.022 388.884 424.423 388.06 424.508ZM443.716 309.339C443.012 308.903 442.794 307.979 443.23 307.274C443.666 306.57 444.59 306.352 445.295 306.788L453.799 312.049C454.503 312.485 454.721 313.409 454.285 314.114C453.85 314.818 452.925 315.036 452.221 314.6L443.716 309.339ZM581.23 336.274C580.794 336.979 581.012 337.903 581.716 338.339L590.221 343.6C590.925 344.036 591.85 343.818 592.285 343.114C592.721 342.409 592.503 341.485 591.799 341.049L583.295 335.788C582.59 335.352 581.666 335.57 581.23 336.274ZM361.397 296.522C360.608 296.775 359.763 296.341 359.51 295.552C359.257 294.763 359.691 293.919 360.48 293.665L370.001 290.609C370.79 290.355 371.635 290.79 371.888 291.578C372.141 292.367 371.707 293.212 370.918 293.465L361.397 296.522ZM497.51 324.552C497.763 325.341 498.608 325.775 499.397 325.522L508.918 322.465C509.707 322.212 510.141 321.367 509.888 320.578C509.635 319.79 508.79 319.355 508.001 319.609L498.48 322.665C497.691 322.919 497.257 323.763 497.51 324.552ZM343.897 426.985C343.109 427.238 342.264 426.804 342.011 426.016C341.757 425.227 342.192 424.382 342.98 424.129L352.502 421.072C353.291 420.819 354.135 421.253 354.388 422.042C354.642 422.831 354.208 423.675 353.419 423.929L343.897 426.985ZM345.484 351.366C345.282 350.563 345.769 349.747 346.572 349.545C347.376 349.343 348.191 349.831 348.393 350.634L350.833 360.332C351.035 361.135 350.548 361.95 349.745 362.152C348.941 362.355 348.126 361.867 347.924 361.064L345.484 351.366ZM479.572 380.545C478.769 380.747 478.282 381.563 478.484 382.366L480.924 392.064C481.126 392.867 481.941 393.355 482.745 393.152C483.548 392.95 484.035 392.135 483.833 391.332L481.393 381.634C481.191 380.831 480.376 380.343 479.572 380.545ZM534.484 427.366C534.282 426.563 534.769 425.747 535.572 425.545C536.376 425.343 537.191 425.831 537.393 426.634L539.833 436.332C540.035 437.135 539.548 437.95 538.745 438.152C537.941 438.355 537.126 437.867 536.924 437.064L534.484 427.366ZM475.517 304.715C475.782 305.5 476.633 305.921 477.418 305.656L486.892 302.454C487.677 302.189 488.098 301.338 487.832 300.553C487.567 299.768 486.716 299.347 485.931 299.612L476.458 302.814C475.673 303.079 475.252 303.931 475.517 304.715ZM611.919 325.123C611.134 325.389 610.283 324.967 610.018 324.183C609.753 323.398 610.174 322.547 610.959 322.281L620.432 319.079C621.217 318.814 622.068 319.235 622.333 320.02C622.599 320.805 622.177 321.656 621.393 321.921L611.919 325.123ZM456.018 436.183C456.283 436.967 457.134 437.389 457.919 437.123L467.393 433.921C468.177 433.656 468.599 432.805 468.333 432.02C468.068 431.235 467.217 430.814 466.432 431.079L456.959 434.281C456.174 434.547 455.753 435.398 456.018 436.183ZM371.707 322.298C371.486 321.5 371.955 320.674 372.754 320.453C373.552 320.233 374.378 320.702 374.599 321.501L377.258 331.14C377.478 331.939 377.009 332.765 376.211 332.985C375.412 333.206 374.586 332.737 374.366 331.938L371.707 322.298ZM510.754 349.453C509.955 349.674 509.486 350.5 509.707 351.298L512.366 360.938C512.586 361.737 513.412 362.206 514.211 361.985C515.009 361.765 515.478 360.939 515.258 360.14L512.599 350.501C512.378 349.702 511.552 349.233 510.754 349.453ZM418.588 366.879C417.952 367.41 417.007 367.325 416.476 366.689C415.945 366.053 416.03 365.107 416.666 364.576L424.342 358.167C424.978 357.637 425.924 357.722 426.455 358.358C426.986 358.993 426.901 359.939 426.265 360.47L418.588 366.879ZM554.476 395.689C555.007 396.325 555.952 396.41 556.588 395.879L564.265 389.47C564.901 388.939 564.986 387.993 564.455 387.358C563.924 386.722 562.978 386.637 562.342 387.167L554.666 393.576C554.03 394.107 553.945 395.053 554.476 395.689ZM469.062 360.394C468.237 360.467 467.509 359.857 467.436 359.032C467.363 358.207 467.972 357.478 468.797 357.405L478.758 356.523C479.584 356.45 480.312 357.06 480.385 357.885C480.458 358.71 479.848 359.438 479.023 359.511L469.062 360.394ZM605.436 388.032C605.509 388.857 606.237 389.467 607.062 389.394L617.023 388.511C617.848 388.438 618.458 387.71 618.385 386.885C618.312 386.06 617.584 385.45 616.758 385.523L606.797 386.405C605.972 386.478 605.363 387.207 605.436 388.032Z" fill="#F4F0F0"/></g></g></g><path id="Tshirt detail" fill-rule="evenodd" clip-rule="evenodd" d="M216.5 352.831C216.247 353.322 215.643 353.514 215.153 353.26C214.662 353.007 214.47 352.404 214.723 351.913L230.082 322.179C230.336 321.688 230.939 321.496 231.429 321.749C231.92 322.003 232.112 322.606 231.859 323.097L216.5 352.831Z" fill="#2F6858"/><mask id="mask155fb166d-948b-4c42-8195-0fd61059d718" mask-type="alpha" maskUnits="userSpaceOnUse" x="214" y="321" width="18" height="33" fill="#ffffff"><path id="Tshirt detail_2" fill-rule="evenodd" clip-rule="evenodd" d="M216.5 352.831C216.247 353.322 215.643 353.514 215.153 353.26C214.662 353.007 214.47 352.404 214.723 351.913L230.082 322.179C230.336 321.688 230.939 321.496 231.429 321.749C231.92 322.003 232.112 322.606 231.859 323.097L216.5 352.831Z" fill="#ffffff"/></mask><g mask="url(#mask155fb166d-948b-4c42-8195-0fd61059d718)"/></g><g id="Phone"><path id="Phone_2" fill-rule="evenodd" clip-rule="evenodd" d="M165.754 116.105L102.194 113.488C97.1887 113.282 93.3047 117.804 94.2647 122.72L96.4716 134.025C99.0624 132.89 101.695 131.8 104.338 130.761C131.756 119.987 112.19 145.277 112.19 145.277C112.19 145.277 121.979 136.277 125.631 139.929C129.269 143.568 126.001 151.822 123.637 154.317C123.637 154.317 135.666 146.931 136.216 154.595C136.505 158.627 133.336 164.386 128.44 171.586C128.44 171.586 138.797 163.609 140.731 168.134C142.92 173.26 142.263 178.21 131.32 195.201C122.746 208.515 115.941 217.476 113.397 220.731L116.684 237.566C117.057 239.48 118.773 240.834 120.721 240.754L177.53 238.411C182.018 238.226 185.41 234.279 184.918 229.814L173.142 123.003C172.722 119.193 169.582 116.262 165.754 116.105Z" fill="#010101"/><path id="Stroke 25" fill-rule="evenodd" clip-rule="evenodd" d="M134.174 69.2396C132.624 71.2851 130.533 74.3579 128.04 78.2138C127.737 78.683 127.428 79.1622 127.116 79.6506C125.25 82.5645 123.3 85.6877 121.384 88.8111C120.714 89.9045 120.095 90.9196 119.543 91.8306C119.35 92.1493 119.179 92.4322 119.033 92.6759C118.884 92.9227 118.884 92.9227 118.853 92.9741C118.482 93.5927 117.598 93.6267 117.18 93.0383C117.149 92.9947 117.087 92.9084 116.997 92.7824C116.845 92.5713 116.667 92.3261 116.464 92.0497C115.886 91.2587 115.228 90.377 114.504 89.4272C112.438 86.7139 110.258 84.0009 108.068 81.4714C106.557 79.7269 105.094 78.1316 103.697 76.7188C101.583 74.5819 99.666 72.9076 98.0007 71.7794C96.6935 70.8938 96.196 71.2513 95.8002 73.4139C95.3994 75.6042 95.4736 79.076 95.9351 83.4398C96.1444 85.4184 96.4267 87.5186 96.764 89.6808C97.0327 91.4027 97.3206 93.0654 97.6085 94.606C97.7092 95.1448 97.8026 95.6297 97.8864 96.0528C97.9365 96.3058 97.9721 96.4813 97.9908 96.5716C98.1029 97.1124 97.7554 97.6416 97.2146 97.7538C96.6738 97.8659 96.1446 97.5184 96.0324 96.9776C96.0125 96.8816 95.9758 96.7003 95.9245 96.4413C95.8393 96.0114 95.7445 95.5194 95.6425 94.9733C95.3512 93.4141 95.0599 91.732 94.788 89.9891C94.4458 87.7963 94.1592 85.6641 93.9462 83.6502C93.4659 79.1082 93.3884 75.4829 93.8329 73.0539C94.4547 69.656 96.385 68.2689 99.1225 70.1237C100.912 71.3361 102.921 73.0906 105.119 75.3124C106.549 76.759 108.042 78.3863 109.58 80.1622C111.8 82.7265 114.005 85.471 116.095 88.2153C116.762 89.0898 117.373 89.9076 117.919 90.6515C118.451 89.7747 119.042 88.8052 119.68 87.7654C121.602 84.6318 123.558 81.4981 125.431 78.5721C125.746 78.0812 126.056 77.5996 126.361 77.1278C128.879 73.2335 130.993 70.1261 132.58 68.0319C133.504 66.8122 134.243 65.9435 134.808 65.4335C135.202 65.0777 135.539 64.8591 135.922 64.7865C136.692 64.6407 137.271 65.1567 137.382 65.8766C137.611 67.3661 137.413 72.2262 136.909 79.6354C136.83 80.791 136.745 81.9898 136.655 83.2226C136.476 85.669 136.283 88.1351 136.091 90.4981C136.063 90.8422 136.036 91.174 136.01 91.4921C136.392 91.2354 136.796 90.9661 137.218 90.686C139.462 89.1979 141.777 87.7097 144.04 86.3196C144.802 85.8514 145.548 85.4013 146.273 84.9717C149.872 82.8388 152.838 81.2893 154.983 80.4854C156.314 79.9868 157.339 79.7654 158.122 79.8754C159.346 80.0476 159.933 81.0272 159.655 82.3059C159.262 84.1143 158.723 86.9025 158.077 90.436C158 90.8572 157.922 91.2874 157.842 91.7262C157.376 94.3033 156.888 97.0651 156.409 99.8269C156.363 100.092 156.318 100.352 156.274 100.606C157.389 99.5995 158.535 98.6007 159.668 97.6589C160.245 97.1796 160.808 96.7248 161.352 96.2984C163.198 94.8526 164.781 93.7759 166.044 93.1522C167.897 92.2373 169.356 92.1663 169.966 93.6289C170.551 95.0327 170.423 97.4144 169.805 100.646C169.617 101.626 169.388 102.658 169.125 103.72C168.863 104.784 168.582 105.821 168.3 106.792C168.202 107.132 168.11 107.44 168.028 107.71C167.978 107.873 167.942 107.988 167.923 108.05C167.756 108.576 167.194 108.868 166.667 108.701C166.141 108.534 165.849 107.972 166.016 107.445C166.034 107.39 166.067 107.282 166.115 107.127C166.195 106.865 166.284 106.566 166.379 106.235C166.654 105.289 166.928 104.276 167.184 103.241C167.438 102.211 167.66 101.213 167.84 100.27C168.361 97.5505 168.487 95.4809 168.164 94.5165C167.901 94.5344 167.474 94.6766 166.929 94.9455C165.817 95.495 164.332 96.5049 162.585 97.873C162.057 98.2871 161.509 98.7298 160.946 99.1973C159.666 100.261 158.365 101.403 157.114 102.545C156.676 102.944 156.276 103.316 155.921 103.648C155.709 103.847 155.561 103.989 155.483 104.063C154.788 104.73 153.644 104.125 153.805 103.174C153.836 102.99 153.895 102.644 153.978 102.159C154.116 101.352 154.271 100.453 154.439 99.4852C154.918 96.7188 155.407 93.9523 155.874 91.3698C155.954 90.9299 156.032 90.4985 156.11 90.0761C156.76 86.5224 157.302 83.7168 157.7 81.8811C157.703 81.869 157.705 81.8576 157.708 81.847C157.31 81.8445 156.608 82.0123 155.685 82.3583C153.678 83.1104 150.798 84.6152 147.292 86.6923C146.577 87.1163 145.84 87.5609 145.087 88.0238C142.846 89.4005 140.549 90.8766 138.324 92.3527C137.544 92.8695 136.83 93.3492 136.196 93.7796C135.816 94.0373 135.548 94.2211 135.407 94.3184C134.711 94.799 133.77 94.2525 133.842 93.4099C133.855 93.2618 133.879 92.9803 133.913 92.5808C133.968 91.9146 134.031 91.1612 134.098 90.336C134.29 87.978 134.481 85.517 134.66 83.0764C134.75 81.8469 134.835 80.6517 134.914 79.4997C135.288 73.9967 135.493 69.8234 135.478 67.6164C135.111 68.0357 134.674 68.5801 134.174 69.2396Z" fill="#F3705A"/></g></g></g></g></g></g><g id="Dog"><g id="Dog_2"><path id="Fill 1" fill-rule="evenodd" clip-rule="evenodd" d="M1650.12 1124.07C1674.01 1116.29 1723.79 1111.31 1747.74 1191.48C1747.74 1191.48 1815.59 1191.17 1854.02 1196.45C1898.86 1202.61 1900.01 1223 1918.44 1232.74C1961.65 1255.56 1993.36 1258.07 1993.51 1263.05C1993.98 1278.52 1929.64 1259.77 1921.76 1257.15C1921.76 1257.15 1933.84 1290.47 1917.45 1366.23C1916.86 1368.94 1914.38 1370.82 1911.61 1370.63L1903.66 1370.09C1900.73 1369.89 1898.46 1367.46 1898.46 1364.52V1322.29C1898.46 1320.15 1896.67 1318.46 1894.54 1318.58L1894.41 1318.58C1892.53 1318.69 1891.03 1320.18 1890.91 1322.06L1888.19 1364.92C1888 1367.85 1885.57 1370.14 1882.63 1370.14H1876.5C1873.51 1370.14 1871.05 1367.78 1870.93 1364.78L1868.29 1297.57C1868.29 1297.57 1774.51 1319.99 1736.59 1318.77L1730.97 1371.19C1730.68 1373.88 1728.5 1375.98 1725.8 1376.16L1722.92 1376.35C1720.22 1376.53 1717.77 1374.74 1717.13 1372.11L1705.93 1326.26C1705.5 1324.52 1703.89 1323.33 1702.1 1323.43L1701.55 1323.47C1699.67 1323.58 1698.18 1325.07 1698.06 1326.94L1695.3 1371.15C1695.13 1373.86 1693.02 1376.06 1690.31 1376.34L1684.67 1376.94C1681.76 1377.24 1679.11 1375.25 1678.6 1372.37L1653.01 1228.25C1653.01 1228.25 1595.52 1184.35 1623.36 1143.72C1629.78 1134.35 1639.32 1127.59 1650.12 1124.07" fill="#9B7368"/><path id="Fill 4" fill-rule="evenodd" clip-rule="evenodd" d="M1790.87 1267.57C1789.9 1258.71 1779.97 1253.92 1772.3 1258.45C1762.03 1264.52 1749.63 1275.3 1766.97 1285.61C1784.47 1296.01 1792.29 1280.57 1790.87 1267.57" fill="#F7D3BB"/><path id="Fill 6" fill-rule="evenodd" clip-rule="evenodd" d="M1678.42 1141.49C1677.49 1145.57 1674.59 1148.39 1671.94 1147.79C1669.29 1147.19 1667.89 1143.4 1668.81 1139.31C1669.74 1135.23 1672.64 1132.41 1675.29 1133.01C1677.94 1133.61 1679.34 1137.41 1678.42 1141.49" fill="#010101"/><path id="Fill 8" fill-rule="evenodd" clip-rule="evenodd" d="M1652.63 1159.48C1652.26 1158.79 1651.4 1158.54 1650.71 1158.91C1650.66 1158.94 1645.77 1161.55 1641.13 1159.96C1638.45 1159.04 1636.34 1156.86 1634.86 1153.47L1634.61 1152.88L1641.46 1145.28C1642.3 1144.36 1641.77 1142.88 1640.54 1142.69L1632.03 1141.38C1630.89 1141.21 1629.96 1142.28 1630.3 1143.38L1633.04 1152.34L1632.42 1153.2C1632.35 1153.29 1625.77 1162.13 1616.52 1158.57C1615.79 1158.29 1614.97 1158.65 1614.68 1159.38C1614.4 1160.11 1614.77 1160.93 1615.5 1161.21C1623.92 1164.45 1630.44 1159.36 1633.23 1156.54C1634.98 1159.6 1637.32 1161.65 1640.21 1162.64C1641.61 1163.12 1643.02 1163.31 1644.34 1163.31C1648.49 1163.31 1651.88 1161.5 1652.06 1161.4C1652.75 1161.03 1653 1160.17 1652.63 1159.48" fill="#010101"/><path id="Fill 10" fill-rule="evenodd" clip-rule="evenodd" d="M1701.04 1215.44C1712.55 1231.08 1729.24 1177.07 1734.38 1159.05C1727.02 1145.99 1718.68 1137 1710.03 1130.97C1705.89 1143.67 1688.89 1198.94 1701.04 1215.44" fill="#6D4038"/><path id="Fill 12_2" fill-rule="evenodd" clip-rule="evenodd" d="M1818.74 1236.42C1842.26 1273.23 1881.8 1223.53 1878.33 1202.48C1871.97 1199.94 1864.1 1197.83 1854.02 1196.45C1844.8 1195.18 1833.89 1194.24 1822.63 1193.53C1812.33 1200.53 1804.08 1213.48 1818.74 1236.42" fill="#F7D3BB"/><path id="Fill 14" fill-rule="evenodd" clip-rule="evenodd" d="M1618.44 1183C1611.23 1191.31 1593.87 1214.56 1604.07 1235.54C1613.68 1255.29 1625.1 1221.93 1630.09 1204.53C1625.39 1198.16 1621.08 1190.84 1618.44 1183" fill="#6D4038"/></g></g><g id="Master/Character/On Wheels" transform="translate(205.938 378) scale(0.9989690721649485 1)"><g id="Master/Character/On Wheels"><g id="Bottom/On Wheels" transform="translate(15.9395 360) scale(0.9988674971687429 1)"><g id="Bottom/On Wheels/Bike"><g id="Bike"><g id="Bike_2"><path id="Combined Shape" fill-rule="evenodd" clip-rule="evenodd" d="M641.786 139.289C641.49 139.244 641.231 139.205 641.01 139.172L640.925 139.16C640.506 139.071 639.868 138.945 639.036 138.792C637.432 138.497 635.634 138.203 633.679 137.929C626.302 136.895 618.789 136.416 611.689 136.809C603.291 137.273 595.8 138.821 590.464 142.15C585.145 145.468 583.832 147.537 583.832 147.537C583.832 147.537 585.808 148.216 588.9 149.158C591.784 150.037 595.865 152.076 595.907 152.097L595.907 152.098C599.018 150.197 605.187 148.524 612.315 148.13C618.584 147.784 625.398 148.218 632.105 149.158C633.894 149.409 635.533 149.677 636.984 149.944C637.486 150.036 637.926 150.121 638.3 150.197C638.514 150.24 638.653 150.269 638.711 150.282C638.841 150.31 638.973 150.334 639.105 150.353C639.27 150.377 639.601 150.426 640.086 150.5C640.901 150.623 641.849 150.771 642.918 150.941C645.98 151.428 649.394 152.001 653.072 152.656C663.573 154.525 674.07 156.67 683.844 159.054C696.49 162.138 706.949 165.392 714.386 168.722C718.359 170.501 721.337 172.249 723.17 173.854C723.933 174.522 724.428 175.105 724.675 175.554C724.707 175.613 724.73 175.656 724.746 175.686C724.782 175.753 724.785 175.76 724.787 175.74C724.543 178.83 724.284 179.964 724.115 180.201C724.113 180.202 724.108 180.204 724.1 180.208C723.963 180.281 723.736 180.363 723.398 180.444C722.379 180.687 720.816 180.8 718.638 180.739C713.971 180.608 706.923 179.715 695.12 177.791C690.062 176.967 684.239 175.975 675.373 174.435C675.951 174.536 655.914 171.046 649.271 169.898C609.312 162.991 583.845 170.71 570.506 188.369C566.959 193.063 564.6 198.09 563.198 203.126C562.702 204.906 562.36 206.572 562.145 208.088C562.008 209.051 561.943 209.789 561.924 210.267C561.799 213.395 564.234 216.033 567.362 216.158C570.491 216.284 573.129 213.849 573.254 210.72C573.254 210.729 573.255 210.715 573.257 210.681C573.259 210.655 573.262 210.618 573.267 210.569C573.288 210.326 573.322 210.029 573.371 209.684C573.519 208.642 573.762 207.458 574.121 206.168C575.16 202.436 576.917 198.694 579.553 195.204C584.078 189.214 590.748 184.546 600.12 181.705C612.004 178.103 627.598 177.659 647.339 181.071C653.975 182.218 674.005 185.706 673.433 185.607C682.334 187.153 688.19 188.15 693.296 188.983C695.009 189.262 696.628 189.521 698.16 189.759C698.131 191.029 698.1 192.427 698.067 193.947C697.927 200.254 697.772 207.356 697.604 215.1C697.159 235.697 696.713 256.906 696.294 277.728L373.811 335.465L375.045 297.242C375.146 294.112 372.691 291.493 369.561 291.392C366.431 291.291 363.813 293.746 363.712 296.876L362.35 339.076L165.068 462.436C160.343 465.391 162.27 472.676 167.839 472.907L425.494 483.602C425.638 483.61 425.783 483.612 425.928 483.608C427.188 483.579 428.321 483.145 429.228 482.446L695.976 293.657C695.905 297.275 695.835 300.847 695.767 304.37C694.367 376.873 693.802 419.073 694.408 423.31C698.385 451.153 705.439 466.92 722.04 485.596C724.12 487.936 727.704 488.147 730.044 486.067C732.384 483.987 732.595 480.403 730.515 478.063C715.43 461.093 709.303 447.397 705.633 421.707C705.173 418.488 705.778 373.229 707.104 304.589C707.234 297.838 707.371 290.907 707.513 283.821C707.693 283.052 707.701 282.26 707.559 281.496C707.999 259.549 708.47 237.106 708.941 215.345C709.108 207.603 709.263 200.503 709.403 194.198C709.425 193.195 709.446 192.245 709.466 191.35C713.027 191.773 715.891 192.005 718.32 192.073C731.006 192.428 735.191 188.032 736.091 176.632C736.693 168.996 730.356 163.448 719.019 158.373C710.833 154.707 699.788 151.271 686.531 148.038C676.499 145.591 665.777 143.4 655.059 141.492C651.31 140.825 647.828 140.241 644.701 139.743C643.604 139.568 642.628 139.417 641.786 139.289ZM724.115 180.201C724.11 180.209 724.104 180.216 724.099 180.222L724.105 180.216C724.116 180.205 724.121 180.199 724.115 180.201ZM428.24 469.254L677.935 292.534L375.928 346.606L428.24 469.254ZM186.612 462.338L417.043 471.903L365.305 350.601L186.612 462.338Z" fill="#B9B3B8"/><path id="Fill 3" fill-rule="evenodd" clip-rule="evenodd" d="M313.946 262.05C313.946 262.05 310.056 300.948 374.24 299.004C438.424 297.059 394.662 260.105 394.662 260.105L313.946 262.05Z" fill="#010101"/><path id="Combined Shape_2" fill-rule="evenodd" clip-rule="evenodd" d="M0.939453 467.243C0.939453 374.937 75.7684 300.108 168.074 300.108C260.381 300.108 335.21 374.937 335.21 467.243C335.21 559.549 260.381 634.379 168.074 634.379C75.7684 634.379 0.939453 559.549 0.939453 467.243ZM274.23 361.087C245.875 332.731 208.175 317.116 168.074 317.116C127.973 317.116 90.2735 332.731 61.9185 361.087C33.5625 389.442 17.9475 427.142 17.9475 467.243C17.9475 507.343 33.5625 545.044 61.9185 573.399C90.2735 601.754 127.973 617.371 168.074 617.371C208.175 617.371 245.875 601.754 274.23 573.399C302.586 545.044 318.202 507.343 318.202 467.243C318.202 427.142 302.586 389.442 274.23 361.087ZM547.902 467.243C547.902 374.937 622.732 300.108 715.038 300.108C807.345 300.108 882.174 374.937 882.174 467.243C882.174 559.549 807.345 634.379 715.038 634.379C622.732 634.379 547.902 559.549 547.902 467.243ZM821.194 361.087C792.839 332.731 755.139 317.116 715.038 317.116C674.937 317.116 637.237 332.731 608.882 361.087C580.526 389.442 564.91 427.142 564.91 467.243C564.91 507.343 580.526 545.044 608.882 573.399C637.237 601.754 674.937 617.371 715.038 617.371C755.139 617.371 792.839 601.754 821.194 573.399C849.55 545.044 865.166 507.343 865.166 467.243C865.166 427.142 849.55 389.442 821.194 361.087Z" fill="#010101"/><path id="Combined Shape_3" fill-rule="evenodd" clip-rule="evenodd" d="M587.094 449.842C579.354 449.027 574.124 441.553 576.012 434.003L630.135 438.598L630.172 439.741C630.423 447.505 623.759 453.701 616.034 452.888L587.094 449.842ZM437.641 498.338V498.337L492.275 512.634L492.225 514.246C491.991 521.746 484.795 527.047 477.563 525.048L444.249 515.839C436.688 513.749 433.348 504.903 437.641 498.338Z" fill="#010101"/></g><path id="Shoes" fill-rule="evenodd" clip-rule="evenodd" d="M552.206 408.836L560.932 397.909L569.179 388.119C580.182 390.735 631.947 406.949 631.947 406.949C631.947 406.949 628.641 411.796 641.669 420.086C654.697 428.376 647.59 440.812 647.59 440.812L550.474 431.337L552.206 408.836ZM418.865 494.199L432.554 434.229L494.826 476.967C494.826 476.967 492.862 485.993 502.856 492.399C515.264 500.353 516.181 519.049 516.181 519.049L418.865 494.199Z" fill="#2F6858"/><path id="Pant details" fill-rule="evenodd" clip-rule="evenodd" d="M672.904 190.48C673.327 190.125 673.382 189.494 673.027 189.071C671.828 187.643 670.549 186.241 669.189 184.868C668.146 184.686 666.961 184.48 665.688 184.259C667.805 186.231 669.739 188.265 671.495 190.357C671.85 190.78 672.48 190.835 672.904 190.48ZM643.036 168.922C645 169.196 647.003 169.508 649.043 169.858C640.468 165.025 630.359 160.738 618.633 157.04C571.376 142.14 523.408 129.642 477.214 119.455C461.046 115.89 446.254 112.868 433.149 110.378C428.561 109.507 424.512 108.764 421.039 108.148C419.824 107.932 418.767 107.748 417.873 107.595C417.337 107.503 416.974 107.442 416.789 107.411C416.244 107.321 415.729 107.689 415.639 108.234C415.548 108.779 415.917 109.294 416.461 109.384C416.643 109.414 417.002 109.475 417.535 109.566C418.425 109.719 419.478 109.902 420.69 110.117C424.155 110.732 428.196 111.473 432.775 112.343C445.862 114.829 460.635 117.847 476.784 121.409C522.924 131.583 570.836 144.066 618.031 158.948C627.411 161.906 635.731 165.239 643.036 168.922Z" fill="#3973B0"/></g><path id="Pants" fill-rule="evenodd" clip-rule="evenodd" d="M576.515 72.4166L418.865 110L461.762 245.518L557.066 197.867C547.968 229.056 546.397 269.316 547.452 304.376L661.095 284.03C666.319 253.585 670.614 219.78 672.205 185.393C667.803 184.627 652.887 182.03 647.339 181.071C627.597 177.659 612.003 178.103 600.119 181.705C590.748 184.546 584.077 189.214 579.552 195.204C576.916 198.694 575.16 202.436 574.12 206.168C573.761 207.458 573.519 208.642 573.37 209.684C573.321 210.029 573.287 210.326 573.266 210.569C573.262 210.618 573.259 210.655 573.257 210.681L573.255 210.703C573.254 210.721 573.253 210.727 573.253 210.72C573.128 213.849 570.491 216.284 567.362 216.158C564.233 216.033 561.798 213.395 561.923 210.267C561.943 209.789 562.007 209.051 562.144 208.088C562.36 206.572 562.701 204.906 563.197 203.126C564.6 198.09 566.958 193.063 570.505 188.369C583.845 170.71 609.312 162.991 649.27 169.898C654.3 170.767 667.006 172.978 672.631 173.958C672.699 171.555 672.752 169.151 672.791 166.747C672.848 163.207 672.819 159.794 672.708 156.503C666.284 155.117 659.678 153.832 653.071 152.656C649.393 152.001 645.979 151.428 642.917 150.941C641.848 150.771 640.9 150.623 640.085 150.5C639.832 150.461 639.622 150.43 639.454 150.405C639.301 150.382 639.184 150.365 639.104 150.353C638.972 150.334 638.841 150.31 638.71 150.282C638.681 150.275 638.631 150.265 638.562 150.25C638.493 150.236 638.406 150.218 638.299 150.197C637.925 150.121 637.485 150.036 636.983 149.944C635.533 149.677 633.893 149.409 632.105 149.158C625.398 148.218 618.583 147.784 612.314 148.13C605.186 148.524 599.018 150.197 595.906 152.098L595.906 152.097C595.864 152.076 591.783 150.037 588.899 149.158C585.808 148.216 583.831 147.537 583.831 147.537C583.831 147.537 585.144 145.468 590.464 142.15C595.799 138.821 603.291 137.273 611.689 136.809C618.789 136.416 626.301 136.895 633.679 137.929C635.633 138.203 637.431 138.497 639.035 138.792C639.868 138.945 640.505 139.071 640.925 139.16L641.01 139.172C641.23 139.205 641.489 139.244 641.785 139.289C642.628 139.417 643.603 139.568 644.7 139.743C647.827 140.241 651.31 140.825 655.058 141.492C660.713 142.499 666.37 143.585 671.925 144.745C662.202 49.5103 576.515 72.4166 576.515 72.4166ZM658.978 295.928C658.254 299.857 657.518 303.72 656.773 307.511L553.7 380.46C552.524 371.886 549.335 346.691 547.892 315.817L658.978 295.928ZM564.493 386.713L653.446 323.757C642.882 373.324 631.947 406.949 631.947 406.949L564.493 386.713Z" fill="#94C0E9"/><path id="Fill 23" fill-rule="evenodd" clip-rule="evenodd" d="M278.579 110.525C278.579 110.525 205.028 289.279 392.717 277.61L535.672 265.94C535.672 265.94 449.121 308.729 428.699 431.261L494.827 476.967L666.267 275.383C673.894 266.416 679.68 255.979 682.853 244.643C689.986 219.165 687.484 179.799 618.332 157.995C510.387 123.958 415.084 108.398 415.084 108.398L278.579 110.525Z" fill="#94C0E9"/></g></g><g id="Head" transform="translate(247.939 97) scale(0.9953051643192489 1)"><g id="Head/Bald"><g id="Shaved"><path id="Skin" fill-rule="evenodd" clip-rule="evenodd" d="M108.645 51.0007C77.0915 51.0007 51.5125 73.7597 51.5125 101.835C51.5125 107.583 52.6005 113.101 54.5765 118.253C54.3825 118.248 54.1915 118.229 53.9955 118.229C45.6805 118.229 38.9395 123.774 38.9395 130.615C38.9395 137.456 45.6805 143.001 53.9955 143.001C58.5915 143.001 62.7015 141.302 65.4605 138.63C66.4575 137.666 67.9985 137.562 69.0525 138.464C76.7725 145.075 86.5695 149.777 97.4935 151.701C98.8975 151.948 99.8895 153.212 99.8075 154.635L98.2475 182H124.686L123.462 160.5C123.165 155.311 126.202 150.453 131.06 148.608C151.472 140.854 165.778 122.831 165.778 101.835C165.778 73.7597 140.199 51.0007 108.645 51.0007Z" fill="#8d574d"/></g></g></g><g id="Face" transform="translate(321.939 188) scale(0.989010989010989 1)"><g id="Face/Only Smile"><path id="Stroke 1" fill-rule="evenodd" clip-rule="evenodd" d="M25.4575 25.3716C25.3302 24.553 25.8905 23.7862 26.7091 23.6588C27.5277 23.5315 28.2945 24.0919 28.4218 24.9104C28.4526 25.1084 28.5217 25.4981 28.6337 26.0518C28.8222 26.9849 29.0628 28.027 29.3597 29.1506C30.2075 32.3593 31.3337 35.5663 32.7692 38.5472C36.5666 46.4325 41.7598 51.2494 48.5459 51.7176C55.1371 52.1723 59.5439 44.981 61.9084 32.3435C62.6917 28.1571 63.1901 23.663 63.4574 19.1299C63.555 17.4731 63.6158 15.9048 63.6466 14.4583C63.6673 13.4871 63.672 12.7034 63.6679 12.1403C63.6671 12.0382 63.6671 12.0382 63.6668 12.0211C63.6552 11.1928 64.3172 10.5118 65.1456 10.5002C65.9739 10.4885 66.6549 11.1505 66.6665 11.9789C66.6669 12.0059 66.6669 12.0059 66.6679 12.1185C66.6722 12.7093 66.6672 13.5215 66.6459 14.5222C66.6143 16.005 66.5521 17.6106 66.4522 19.3065C66.178 23.9565 65.6662 28.5719 64.8572 32.8953C62.2355 46.9076 57.0842 55.3138 48.3394 54.7104C40.2653 54.1534 34.2828 48.6044 30.0663 39.8489C28.5402 36.6798 27.3524 33.2976 26.4592 29.917C26.1467 28.7344 25.893 27.6351 25.6931 26.6462C25.6227 26.2979 25.564 25.9876 25.5163 25.7186C25.487 25.5536 25.4676 25.4368 25.4575 25.3716Z" fill="#010101"/></g></g><g id="Body" transform="translate(64.9395 58) scale(0.9988674971687429 1)"><g id="Body/Raised Arm"><g id="Body"><path id="Skin" fill-rule="evenodd" clip-rule="evenodd" d="M588.535 74.2293C588.535 74.2293 598.645 23.8533 619.114 0.413347C619.114 0.413347 637.256 -5.69665 628.555 29.1073L683.723 9.23735C683.723 9.23735 714.753 -4.63565 714.959 8.97535C714.959 8.97535 734.907 0.933347 736.613 7.94435C738.469 15.5743 731.044 19.9053 731.044 19.9053C731.044 19.9053 743.511 15.3203 745.491 21.7553C746.166 23.9493 747.516 30.5323 737.582 34.9353C737.582 34.9353 747.869 32.9073 747.336 38.4643C746.558 46.5803 740.577 49.6443 728.823 54.1803C711.168 60.9953 680.762 70.4373 680.762 70.4373L655.208 93.7234L588.535 74.2293ZM162.068 315.672C162.068 315.672 92.2343 458.868 65.1223 511.313C65.1223 511.313 3.90532 602.528 1.57532 606.526C-2.19968 613 11.8053 614.061 17.3933 609.582C17.3933 609.582 10.8943 619.392 13.0783 621.911C15.8373 625.095 23.1433 625.04 26.4783 621.984C26.4783 621.984 22.2743 630.874 25.4563 632.406C25.4563 632.406 33.4203 636.783 44.6663 628.932C44.6663 628.932 36.0213 637.615 40.0263 641.433C43.8483 645.076 52.5453 646.101 65.9133 633.582C79.2813 621.063 101.629 597.883 101.629 597.883C101.629 597.883 100.5 623.821 105.804 627.641C108.457 629.551 110.805 628.185 112.49 626.342C114.17 624.504 115.199 622.164 115.635 619.713L123.179 577.294C123.179 577.294 192.161 434.97 195.925 413.01C199.69 391.05 218.116 340.22 218.116 340.22L193.738 314.75L162.068 315.672ZM341.51 220.535C294.95 214.174 267.842 222.239 267.842 222.239C267.842 222.239 310.123 250.286 320.821 249.464C325.762 249.083 341.51 220.535 341.51 220.535Z" fill="#8d574d"/><path id="Skin Shadows" fill-rule="evenodd" clip-rule="evenodd" d="M715.052 8.9435C714.849 8.42998 714.268 8.17847 713.755 8.38174C713.676 8.41295 713.522 8.47382 713.297 8.56214C712.924 8.70945 712.489 8.88035 711.998 9.07289C710.595 9.6231 709.023 10.2362 707.319 10.8965C702.45 12.7831 697.499 14.6696 692.764 16.4301C692.002 16.7133 691.251 16.9914 690.511 17.264C678.627 21.6426 670.468 24.3153 668.249 24.4207C667.698 24.4469 667.271 24.9153 667.298 25.467C667.324 26.0187 667.792 26.4446 668.344 26.4184C670.879 26.298 678.969 23.6478 691.202 19.1407C691.944 18.8674 692.697 18.5886 693.461 18.3047C698.206 16.5407 703.165 14.6511 708.042 12.7614C709.749 12.1001 711.323 11.486 712.728 10.9348C713.22 10.7419 713.656 10.5705 714.031 10.4228C714.256 10.3341 714.41 10.2731 714.491 10.2414C715.004 10.0381 715.256 9.45701 715.052 8.9435ZM16.6129 610.208C16.9587 610.639 17.5881 610.708 18.0188 610.362C18.0826 610.31 18.1994 610.214 18.3657 610.073C18.6385 609.84 18.9537 609.564 19.3077 609.243C20.3142 608.332 21.4335 607.248 22.6375 605.994C26.0706 602.418 29.5014 598.189 32.703 593.325C34.5369 590.539 36.2441 587.618 37.8007 584.562C38.0513 584.07 37.8556 583.468 37.3635 583.217C36.8714 582.966 36.2692 583.162 36.0186 583.654C34.4963 586.642 32.8264 589.5 31.0324 592.225C27.9011 596.982 24.5467 601.117 21.1947 604.609C20.0238 605.829 18.938 606.88 17.9654 607.761C17.6268 608.067 17.3271 608.33 17.0697 608.549C16.918 608.678 16.8157 608.763 16.7665 608.802C16.3359 609.148 16.2671 609.778 16.6129 610.208ZM25.7692 622.689C26.1589 623.08 26.7921 623.082 27.1834 622.692L27.2978 622.578L27.5157 622.359C27.7854 622.089 28.0982 621.773 28.4505 621.417C29.4564 620.4 30.577 619.255 31.7838 618.01C35.232 614.451 38.6804 610.792 41.9003 607.237C42.8223 606.219 43.7139 605.222 44.5719 604.249C50.7771 597.213 54.9008 591.818 56.2927 588.57C56.5103 588.063 56.2752 587.475 55.7676 587.257C55.2599 587.04 54.6721 587.275 54.4545 587.782C53.1783 590.76 49.1268 596.06 43.0719 602.926C42.2199 603.892 41.3341 604.883 40.418 605.894C37.2147 609.431 33.7811 613.074 30.3474 616.618C29.1455 617.859 28.0295 618.998 27.0281 620.011C26.6778 620.365 26.367 620.679 26.0991 620.947C25.9386 621.108 25.8284 621.219 25.7719 621.275C25.3806 621.665 25.3794 622.298 25.7692 622.689ZM47.3084 627.386C46.9127 627.771 46.2795 627.762 45.8943 627.366C45.5091 626.971 45.5177 626.338 45.9134 625.952L46.004 625.864L46.2012 625.671C46.4368 625.44 46.7102 625.172 47.0183 624.868C47.8989 623.999 48.8804 623.023 49.9374 621.961C52.9573 618.929 55.9769 615.823 58.794 612.821C59.4851 612.085 60.1566 611.362 60.8066 610.655C66.7397 604.205 70.5692 599.402 71.3281 597.235C71.5105 596.713 72.081 596.439 72.6023 596.621C73.1236 596.804 73.3982 597.374 73.2158 597.895C72.3252 600.439 68.4468 605.304 62.2786 612.009C61.6239 612.721 60.9479 613.448 60.2524 614.19C57.4203 617.207 54.3873 620.327 51.3546 623.373C50.2932 624.438 49.3076 625.419 48.4229 626.291C48.1131 626.597 47.838 626.867 47.6007 627.1C47.4581 627.24 47.3599 627.335 47.3084 627.386ZM730.669 18.978C731.181 18.7712 731.764 19.0187 731.971 19.5308C732.178 20.0429 731.93 20.6257 731.418 20.8325C731.329 20.8685 731.156 20.9373 730.903 21.0365C730.484 21.2011 729.99 21.3918 729.426 21.6064C727.815 22.219 725.956 22.9011 723.873 23.6355C717.925 25.7327 711.375 27.8296 704.416 29.7868C698.105 31.5616 691.756 33.135 685.443 34.4531C684.902 34.566 684.373 34.2193 684.26 33.6786C684.147 33.138 684.494 32.6082 685.034 32.4954C691.301 31.1869 697.606 29.6245 703.874 27.8615C710.789 25.9167 717.299 23.8328 723.208 21.7493C725.275 21.0205 727.119 20.3439 728.715 19.737C729.273 19.5249 729.76 19.3367 730.173 19.1747C730.419 19.0779 730.586 19.0116 730.669 18.978ZM741.368 33.5709C741.182 33.051 740.609 32.7806 740.089 32.9669C740.034 32.9866 739.925 33.0254 739.763 33.0822C739.492 33.1773 739.174 33.2877 738.81 33.4122C737.77 33.7683 736.579 34.1653 735.255 34.593C731.473 35.8155 727.394 37.0381 723.171 38.179C717.931 39.5947 712.842 40.7829 708.044 41.6691C702.541 42.6856 697.581 43.2744 693.303 43.3675C692.751 43.3795 692.313 43.8368 692.325 44.389C692.337 44.9412 692.794 45.379 693.347 45.367C697.744 45.2713 702.806 44.6704 708.407 43.6358C713.263 42.7389 718.404 41.5387 723.693 40.1097C727.949 38.9598 732.059 37.728 735.871 36.4961C737.205 36.0647 738.407 35.6641 739.458 35.3043C739.826 35.1782 740.149 35.0662 740.425 34.9695C740.591 34.9112 740.705 34.8708 740.764 34.8496C741.284 34.6633 741.555 34.0908 741.368 33.5709ZM681.162 69.5213C681.668 69.7425 681.899 70.332 681.678 70.8381C681.456 71.3441 680.867 71.575 680.361 71.3538L674.326 68.7158C673.82 68.4946 673.589 67.9051 673.81 67.399C674.031 66.893 674.621 66.6621 675.127 66.8833L681.162 69.5213ZM627.554 29.0976C627.549 29.6499 627.992 30.102 628.544 30.1074C628.695 30.1089 629.008 30.1286 629.46 30.1845C630.231 30.2799 631.095 30.4472 632.029 30.7043C634.708 31.4421 637.389 32.7506 639.895 34.7718C643.656 37.8057 646.688 42.1846 648.721 48.1481C648.899 48.6709 649.467 48.9502 649.99 48.7719C650.513 48.5937 650.792 48.0255 650.614 47.5028C648.46 41.1844 645.209 36.4885 641.151 33.2151C638.42 31.0125 635.491 29.5835 632.56 28.7761C630.788 28.288 629.394 28.1156 628.564 28.1075C628.012 28.1021 627.56 28.5454 627.554 29.0976Z" fill="#D7A17C"/><g id="Tshirt"><path id="Mask 2" fill-rule="evenodd" clip-rule="evenodd" d="M425.35 416.148L423.87 319.589C423.87 319.589 517.95 274.515 547.04 251.631C584.311 222.312 662.871 95.5707 662.871 95.5707L575.907 70.3127C557.892 98.9247 490.03 165.938 446.432 201.974C426.87 218.144 401.67 225.807 376.413 223.311C370.57 222.734 363.903 222.154 356.325 221.6L355.788 221.56C350.794 221.194 346.024 220.845 341.446 220.527C341.467 220.529 341.488 220.532 341.509 220.535C341.509 220.535 325.761 249.083 320.82 249.464C310.122 250.286 267.841 222.239 267.841 222.239C267.841 222.239 268.119 222.156 268.668 222.014C253.756 224.855 238.38 229.925 219.956 238.336C176.794 258.042 56.7852 524.717 56.7852 524.717C56.7852 524.717 99.3622 565.92 142.625 569.354L205.803 416.216C205.803 416.216 283.142 454.434 425.35 416.148Z" fill="#010101"/><g id="Object"><mask id="mask05a75385f-b3bf-4f88-b033-10d28a027417" mask-type="alpha" maskUnits="userSpaceOnUse" x="56" y="70" width="607" height="500" fill="#ffffff"><path id="Mask 2_2" fill-rule="evenodd" clip-rule="evenodd" d="M425.35 416.148L423.87 319.589C423.87 319.589 517.95 274.515 547.04 251.631C584.311 222.312 662.871 95.5707 662.871 95.5707L575.907 70.3127C557.892 98.9247 490.03 165.938 446.432 201.974C426.87 218.144 401.67 225.807 376.413 223.311C370.57 222.734 363.903 222.154 356.325 221.6L355.788 221.56C350.794 221.194 346.024 220.845 341.446 220.527C341.467 220.529 341.488 220.532 341.509 220.535C341.509 220.535 325.761 249.083 320.82 249.464C310.122 250.286 267.841 222.239 267.841 222.239C267.841 222.239 268.119 222.156 268.668 222.014C253.756 224.855 238.38 229.925 219.956 238.336C176.794 258.042 56.7852 524.717 56.7852 524.717C56.7852 524.717 99.3622 565.92 142.625 569.354L205.803 416.216C205.803 416.216 283.142 454.434 425.35 416.148Z" fill="#ffffff"/></mask><g mask="url(#mask05a75385f-b3bf-4f88-b033-10d28a027417)"><g id="Patterns"><path id="Pattern" fill-rule="evenodd" clip-rule="evenodd" d="M61.9385 357V360H104.938V401H61.9385V404H104.938V444H61.9385V447H104.938V487.75H61.9385V490.75H104.938V531H61.9385V534H104.938V576H107.938V534H151.938V576H154.938V534H198.938V576H201.938V534H245.938V576H248.938V534H292.938V576H295.938V534H339.938V576H342.938V358H341.938V357H61.9385ZM339.938 360H295.938V401H339.938V360ZM292.938 360H248.938V401H292.938V360ZM245.938 360H201.938V401H245.938V360ZM198.938 360H154.938V401H198.938V360ZM151.938 360H107.938V401H151.938V360ZM107.938 531V490.75H151.938V531H107.938ZM154.938 531V490.75H198.938V531H154.938ZM154.938 487.75H198.938V447H154.938V487.75ZM201.938 531V490.75H245.938V531H201.938ZM201.938 487.75H245.938V447H201.938V487.75ZM248.938 531V490.75H292.938V531H248.938ZM248.938 487.75H292.938V447H248.938V487.75ZM295.938 531V490.75H339.938V531H295.938ZM295.938 487.75H339.938V447H295.938V487.75ZM107.938 487.75H151.938V447H107.938V487.75ZM107.938 444V404H151.938V444H107.938ZM154.938 444V404H198.938V444H154.938ZM201.938 444V404H245.938V444H201.938ZM248.938 444V404H292.938V444H248.938ZM295.938 444V404H339.938V444H295.938Z" fill="#F4F0F0"/></g><g id="Patterns_2"><path id="Pattern_2" fill-rule="evenodd" clip-rule="evenodd" d="M341.938 357V360H384.938V401H341.938V404H384.938V444H341.938V447H384.938V487.75H341.938V490.75H384.938V531H341.938V534H384.938V576H387.938V534H431.938V576H434.938V534H478.938V576H481.938V534H525.938V576H528.938V534H572.938V576H575.938V534H619.938V576H622.938V358H621.938V357H341.938ZM619.938 360H575.938V401H619.938V360ZM572.938 360H528.938V401H572.938V360ZM525.938 360H481.938V401H525.938V360ZM478.938 360H434.938V401H478.938V360ZM431.938 360H387.938V401H431.938V360ZM387.938 531V490.75H431.938V531H387.938ZM434.938 531V490.75H478.938V531H434.938ZM434.938 487.75H478.938V447H434.938V487.75ZM481.938 531V490.75H525.938V531H481.938ZM481.938 487.75H525.938V447H481.938V487.75ZM528.938 531V490.75H572.938V531H528.938ZM528.938 487.75H572.938V447H528.938V487.75ZM575.938 531V490.75H619.938V531H575.938ZM575.938 487.75H619.938V447H575.938V487.75ZM387.938 487.75H431.938V447H387.938V487.75ZM387.938 444V404H431.938V444H387.938ZM434.938 444V404H478.938V444H434.938ZM481.938 444V404H525.938V444H481.938ZM528.938 444V404H572.938V444H528.938ZM575.938 444V404H619.938V444H575.938Z" fill="#F4F0F0"/></g><g id="Patterns_3"><path id="Pattern_3" fill-rule="evenodd" clip-rule="evenodd" d="M61.9385 139V142H104.938V183H61.9385V186H104.938V226H61.9385V229H104.938V269.75H61.9385V272.75H104.938V313H61.9385V316H104.938V358H107.938V316H151.938V358H154.938V316H198.938V358H201.938V316H245.938V358H248.938V316H292.938V358H295.938V316H339.938V358H342.938V140H341.938V139H61.9385ZM339.938 142H295.938V183H339.938V142ZM292.938 142H248.938V183H292.938V142ZM245.938 142H201.938V183H245.938V142ZM198.938 142H154.938V183H198.938V142ZM151.938 142H107.938V183H151.938V142ZM107.938 313V272.75H151.938V313H107.938ZM154.938 313V272.75H198.938V313H154.938ZM154.938 269.75H198.938V229H154.938V269.75ZM201.938 313V272.75H245.938V313H201.938ZM201.938 269.75H245.938V229H201.938V269.75ZM248.938 313V272.75H292.938V313H248.938ZM248.938 269.75H292.938V229H248.938V269.75ZM295.938 313V272.75H339.938V313H295.938ZM295.938 269.75H339.938V229H295.938V269.75ZM107.938 269.75H151.938V229H107.938V269.75ZM107.938 226V186H151.938V226H107.938ZM154.938 226V186H198.938V226H154.938ZM201.938 226V186H245.938V226H201.938ZM248.938 226V186H292.938V226H248.938ZM295.938 226V186H339.938V226H295.938Z" fill="#F4F0F0"/></g><g id="Patterns_4"><path id="Pattern_4" fill-rule="evenodd" clip-rule="evenodd" d="M341.938 139V142H384.938V183H341.938V186H384.938V226H341.938V229H384.938V269.75H341.938V272.75H384.938V313H341.938V316H384.938V358H387.938V316H431.938V358H434.938V316H478.938V358H481.938V316H525.938V358H528.938V316H572.938V358H575.938V316H619.938V358H622.938V140H621.938V139H341.938ZM619.938 142H575.938V183H619.938V142ZM572.938 142H528.938V183H572.938V142ZM525.938 142H481.938V183H525.938V142ZM478.938 142H434.938V183H478.938V142ZM431.938 142H387.938V183H431.938V142ZM387.938 313V272.75H431.938V313H387.938ZM434.938 313V272.75H478.938V313H434.938ZM434.938 269.75H478.938V229H434.938V269.75ZM481.938 313V272.75H525.938V313H481.938ZM481.938 269.75H525.938V229H481.938V269.75ZM528.938 313V272.75H572.938V313H528.938ZM528.938 269.75H572.938V229H528.938V269.75ZM575.938 313V272.75H619.938V313H575.938ZM575.938 269.75H619.938V229H575.938V269.75ZM387.938 269.75H431.938V229H387.938V269.75ZM387.938 226V186H431.938V226H387.938ZM434.938 226V186H478.938V226H434.938ZM481.938 226V186H525.938V226H481.938ZM528.938 226V186H572.938V226H528.938ZM575.938 226V186H619.938V226H575.938Z" fill="#F4F0F0"/></g><g id="Patterns_5"><path id="Pattern_5" fill-rule="evenodd" clip-rule="evenodd" d="M341.938 -79V-76H384.938V-35H341.938V-32H384.938V8H341.938V11H384.938V51.75H341.938V54.75H384.938V95H341.938V98H384.938V140H387.938V98H431.938V140H434.938V98H478.938V140H481.938V98H525.938V140H528.938V98H572.938V140H575.938V98H619.938V140H622.938V-78H621.938V-79H341.938ZM619.938 -76H575.938V-35H619.938V-76ZM572.938 -76H528.938V-35H572.938V-76ZM525.938 -76H481.938V-35H525.938V-76ZM478.938 -76H434.938V-35H478.938V-76ZM431.938 -76H387.938V-35H431.938V-76ZM387.938 95V54.75H431.938V95H387.938ZM434.938 95V54.75H478.938V95H434.938ZM434.938 51.75H478.938V11H434.938V51.75ZM481.938 95V54.75H525.938V95H481.938ZM481.938 51.75H525.938V11H481.938V51.75ZM528.938 95V54.75H572.938V95H528.938ZM528.938 51.75H572.938V11H528.938V51.75ZM575.938 95V54.75H619.938V95H575.938ZM575.938 51.75H619.938V11H575.938V51.75ZM387.938 51.75H431.938V11H387.938V51.75ZM387.938 8V-32H431.938V8H387.938ZM434.938 8V-32H478.938V8H434.938ZM481.938 8V-32H525.938V8H481.938ZM528.938 8V-32H572.938V8H528.938ZM575.938 8V-32H619.938V8H575.938Z" fill="#F4F0F0"/></g><g id="Patterns_6"><path id="Pattern_6" fill-rule="evenodd" clip-rule="evenodd" d="M621.938 -79V-76H664.938V-35H621.938V-32H664.938V8H621.938V11H664.938V51.75H621.938V54.75H664.938V95H621.938V98H664.938V140H667.938V98H711.938V140H714.938V98H758.938V140H761.938V98H805.938V140H808.938V98H852.938V140H855.938V98H899.938V140H902.938V-78H901.938V-79H621.938ZM899.938 -76H855.938V-35H899.938V-76ZM852.938 -76H808.938V-35H852.938V-76ZM805.938 -76H761.938V-35H805.938V-76ZM758.938 -76H714.938V-35H758.938V-76ZM711.938 -76H667.938V-35H711.938V-76ZM667.938 95V54.75H711.938V95H667.938ZM714.938 95V54.75H758.938V95H714.938ZM714.938 51.75H758.938V11H714.938V51.75ZM761.938 95V54.75H805.938V95H761.938ZM761.938 51.75H805.938V11H761.938V51.75ZM808.938 95V54.75H852.938V95H808.938ZM808.938 51.75H852.938V11H808.938V51.75ZM855.938 95V54.75H899.938V95H855.938ZM855.938 51.75H899.938V11H855.938V51.75ZM667.938 51.75H711.938V11H667.938V51.75ZM667.938 8V-32H711.938V8H667.938ZM714.938 8V-32H758.938V8H714.938ZM761.938 8V-32H805.938V8H761.938ZM808.938 8V-32H852.938V8H808.938ZM855.938 8V-32H899.938V8H855.938Z" fill="#F4F0F0"/></g></g></g><path id="Tshirt details" fill-rule="evenodd" clip-rule="evenodd" d="M195.791 408.038C197.085 409.155 198.452 410.272 199.828 411.313C200.835 412.074 201.81 412.765 202.738 413.37C204.019 414.205 205.184 414.858 206.201 415.298C206.708 415.518 206.941 416.107 206.721 416.613C206.502 417.12 205.913 417.353 205.406 417.134C204.273 416.643 203.014 415.938 201.646 415.046C200.676 414.414 199.664 413.696 198.622 412.908C197.208 411.839 195.808 410.695 194.484 409.552C194.021 409.152 193.6 408.78 193.228 408.446C193.005 408.244 192.846 408.099 192.761 408.02C192.45 407.731 192.356 407.276 192.527 406.886L229.362 322.967C229.584 322.462 230.174 322.231 230.679 322.453C231.185 322.675 231.415 323.265 231.193 323.771L194.647 407.032C194.988 407.338 195.372 407.676 195.791 408.038Z" fill="#B9B3B8"/></g></g></g></g></g></g></g></svg>