<svg viewBox="0 -25 2009.9999999999995 1049.9999999999998" fill="none" xmlns="http://www.w3.org/2000/svg" xmlns:xlink="http://www.w3.org/1999/xlink" overflow="visible" width="2009.9999999999995px" height="1049.9999999999998px"><g id="Master/Background/Friendly Sketch"><g id="Background" transform="scale(1 1)"><g id="Background/Triangles"><mask id="mask0bf6fce6e-2c3a-469c-bee5-f500eecc0dc8" mask-type="alpha" maskUnits="userSpaceOnUse" x="0" y="0" width="2010" height="1000"><rect id="Mask" width="2010" height="1000" fill="white"/></mask><g mask="url(#mask0bf6fce6e-2c3a-469c-bee5-f500eecc0dc8)"><path id="Triangle" opacity="0.45" d="M148.943 718.062L286.828 1146.08L-204.713 995.799L148.943 718.062Z" fill="#B9E2D8"/><path id="Triangle_2" opacity="0.45" fill-rule="evenodd" clip-rule="evenodd" d="M1871.94 -125.938L2009.83 302.078L1518.29 151.799L1871.94 -125.938Z" fill="#D3E677"/><path id="Triangle_3" opacity="0.45" fill-rule="evenodd" clip-rule="evenodd" d="M123.943 -175.938L261.828 252.078L-229.713 101.799L123.943 -175.938Z" fill="#9DC0E1"/><path id="Triangle_4" opacity="0.45" fill-rule="evenodd" clip-rule="evenodd" d="M1866.12 802.841L1991.66 1192.57L1544.11 1055.74L1866.12 802.841Z" fill="#E677A3"/><path id="Triangle_5" opacity="0.45" d="M1718.32 451.379L1694.49 587.015L1587.32 493.855L1718.32 451.379Z" fill="#B9E2D8"/><path id="Triangle_6" opacity="0.45" fill-rule="evenodd" clip-rule="evenodd" d="M449.826 49.9102L476.002 154.117L369.852 121.664L449.826 49.9102Z" fill="#D3E677"/><path id="Triangle_7" opacity="0.45" fill-rule="evenodd" clip-rule="evenodd" d="M1403.28 136.845L1440.2 237.745L1331.24 216.565L1403.28 136.845Z" fill="#9DC0E1"/><path id="Triangle_8" opacity="0.45" fill-rule="evenodd" clip-rule="evenodd" d="M349.821 756.558L456.897 843.159L323.461 891.726L349.821 756.558Z" fill="#E677A3"/></g></g></g></g></svg>