<svg viewBox="25.125 75 1934.625 850.0000000000002" fill="none" xmlns="http://www.w3.org/2000/svg" xmlns:xlink="http://www.w3.org/1999/xlink" overflow="visible" width="1934.625px" height="850.0000000000002px"><g id="Master/Background/Friendly Blocks"><g id="Background" transform="scale(1 1)"><g id="Background/Blocks"><path id="Blob" opacity="0.45" fill-rule="evenodd" clip-rule="evenodd" d="M1873.31 111.528C1907.72 133.292 1929.8 175.116 1937.67 217.346C1945.46 259.494 1939.05 302.13 1924.11 339.974C1909.1 377.9 1885.65 411.034 1854.57 440.026C1823.41 469.018 1784.62 493.869 1742.09 498.985C1699.57 504.101 1653.32 489.646 1621.75 460.735C1590.26 431.905 1573.46 388.62 1561.94 345.497C1550.34 302.374 1543.84 259.251 1554.15 219.782C1564.46 180.314 1591.48 144.418 1626.21 122.816C1660.94 101.214 1703.39 93.9052 1747.86 91.0628C1792.41 88.2204 1838.99 89.8446 1873.31 111.528Z" fill="#9DC0E1"/><path id="Blob_2" opacity="0.45" d="M359.238 616.726C386.328 648.16 384.144 704.482 378.322 755.066C372.5 805.651 363.119 850.418 336.03 879.75C308.94 909.083 264.141 923.063 224.517 917.972C184.812 912.8 150.364 888.558 119.878 859.226C89.3915 829.812 63.0296 795.389 53.164 751.107C43.3794 706.825 50.172 652.685 80.6581 621.332C111.063 589.979 165.243 581.252 220.474 580.121C275.785 578.99 332.148 585.374 359.238 616.726Z" fill="#B9E2D8"/><path id="Blob_3" opacity="0.45" fill-rule="evenodd" clip-rule="evenodd" d="M1363.55 169.007C1467.52 241.162 1542.39 374.291 1548.51 513.748C1554.83 653.417 1492.41 798.993 1388.44 864.186C1284.25 929.168 1138.73 913.555 991.529 915.032C844.323 916.509 695.852 935.075 599.05 870.094C502.459 804.901 457.749 656.371 461.124 511.006C464.709 365.851 516.379 224.073 612.969 152.129C709.56 79.9734 851.283 77.6526 988.787 81.8722C1126.29 86.0918 1259.37 96.8518 1363.55 169.007Z" fill="#CDDC93"/><path id="Blob_4" opacity="0.45" fill-rule="evenodd" clip-rule="evenodd" d="M233.387 344.077C170.547 321.378 160 274.815 105.024 248.215C50.0483 221.616 128.785 126.584 233.387 143.283C337.989 159.981 296.227 366.777 233.387 344.077Z" fill="#E677A3"/><path id="Blob_5" opacity="0.45" fill-rule="evenodd" clip-rule="evenodd" d="M1720.32 819.598C1703.98 805.595 1699.24 788.166 1703.45 769.336C1707.64 750.524 1720.76 730.33 1736.51 729.062C1752.27 727.818 1770.68 745.48 1780.43 769.566C1790.22 793.656 1791.36 824.15 1777.96 834.118C1764.57 844.11 1736.64 833.577 1720.32 819.598Z" fill="#D49DE1"/></g></g></g></svg>